G04 #@! TF.GenerationSoftware,KiCad,Pcbnew,7.0.6-0*
G04 #@! TF.CreationDate,2024-02-24T20:21:30+09:00*
G04 #@! TF.ProjectId,K6504-SBC,4b363530-342d-4534-9243-2e6b69636164,rev?*
G04 #@! TF.SameCoordinates,PX54e0840PY90013c0*
G04 #@! TF.FileFunction,Legend,Top*
G04 #@! TF.FilePolarity,Positive*
%FSLAX46Y46*%
G04 Gerber Fmt 4.6, Leading zero omitted, Abs format (unit mm)*
G04 Created by KiCad (PCBNEW 7.0.6-0) date 2024-02-24 20:21:30*
%MOMM*%
%LPD*%
G01*
G04 APERTURE LIST*
%ADD10C,0.200000*%
%ADD11C,0.150000*%
%ADD12C,0.250000*%
%ADD13C,0.120000*%
G04 APERTURE END LIST*
D10*
X52563971Y63104137D02*
X53278257Y63604137D01*
X52563971Y63961280D02*
X54063971Y63961280D01*
X54063971Y63961280D02*
X54063971Y63389851D01*
X54063971Y63389851D02*
X53992542Y63246994D01*
X53992542Y63246994D02*
X53921114Y63175565D01*
X53921114Y63175565D02*
X53778257Y63104137D01*
X53778257Y63104137D02*
X53563971Y63104137D01*
X53563971Y63104137D02*
X53421114Y63175565D01*
X53421114Y63175565D02*
X53349685Y63246994D01*
X53349685Y63246994D02*
X53278257Y63389851D01*
X53278257Y63389851D02*
X53278257Y63961280D01*
X54063971Y61818422D02*
X54063971Y62104137D01*
X54063971Y62104137D02*
X53992542Y62246994D01*
X53992542Y62246994D02*
X53921114Y62318422D01*
X53921114Y62318422D02*
X53706828Y62461280D01*
X53706828Y62461280D02*
X53421114Y62532708D01*
X53421114Y62532708D02*
X52849685Y62532708D01*
X52849685Y62532708D02*
X52706828Y62461280D01*
X52706828Y62461280D02*
X52635400Y62389851D01*
X52635400Y62389851D02*
X52563971Y62246994D01*
X52563971Y62246994D02*
X52563971Y61961280D01*
X52563971Y61961280D02*
X52635400Y61818422D01*
X52635400Y61818422D02*
X52706828Y61746994D01*
X52706828Y61746994D02*
X52849685Y61675565D01*
X52849685Y61675565D02*
X53206828Y61675565D01*
X53206828Y61675565D02*
X53349685Y61746994D01*
X53349685Y61746994D02*
X53421114Y61818422D01*
X53421114Y61818422D02*
X53492542Y61961280D01*
X53492542Y61961280D02*
X53492542Y62246994D01*
X53492542Y62246994D02*
X53421114Y62389851D01*
X53421114Y62389851D02*
X53349685Y62461280D01*
X53349685Y62461280D02*
X53206828Y62532708D01*
X54063971Y60318423D02*
X54063971Y61032709D01*
X54063971Y61032709D02*
X53349685Y61104137D01*
X53349685Y61104137D02*
X53421114Y61032709D01*
X53421114Y61032709D02*
X53492542Y60889851D01*
X53492542Y60889851D02*
X53492542Y60532709D01*
X53492542Y60532709D02*
X53421114Y60389851D01*
X53421114Y60389851D02*
X53349685Y60318423D01*
X53349685Y60318423D02*
X53206828Y60246994D01*
X53206828Y60246994D02*
X52849685Y60246994D01*
X52849685Y60246994D02*
X52706828Y60318423D01*
X52706828Y60318423D02*
X52635400Y60389851D01*
X52635400Y60389851D02*
X52563971Y60532709D01*
X52563971Y60532709D02*
X52563971Y60889851D01*
X52563971Y60889851D02*
X52635400Y61032709D01*
X52635400Y61032709D02*
X52706828Y61104137D01*
X54063971Y59318423D02*
X54063971Y59175566D01*
X54063971Y59175566D02*
X53992542Y59032709D01*
X53992542Y59032709D02*
X53921114Y58961280D01*
X53921114Y58961280D02*
X53778257Y58889852D01*
X53778257Y58889852D02*
X53492542Y58818423D01*
X53492542Y58818423D02*
X53135400Y58818423D01*
X53135400Y58818423D02*
X52849685Y58889852D01*
X52849685Y58889852D02*
X52706828Y58961280D01*
X52706828Y58961280D02*
X52635400Y59032709D01*
X52635400Y59032709D02*
X52563971Y59175566D01*
X52563971Y59175566D02*
X52563971Y59318423D01*
X52563971Y59318423D02*
X52635400Y59461280D01*
X52635400Y59461280D02*
X52706828Y59532709D01*
X52706828Y59532709D02*
X52849685Y59604138D01*
X52849685Y59604138D02*
X53135400Y59675566D01*
X53135400Y59675566D02*
X53492542Y59675566D01*
X53492542Y59675566D02*
X53778257Y59604138D01*
X53778257Y59604138D02*
X53921114Y59532709D01*
X53921114Y59532709D02*
X53992542Y59461280D01*
X53992542Y59461280D02*
X54063971Y59318423D01*
X53563971Y57532709D02*
X52563971Y57532709D01*
X54135400Y57889852D02*
X53063971Y58246995D01*
X53063971Y58246995D02*
X53063971Y57318424D01*
X52563971Y56746996D02*
X54063971Y56746996D01*
X54063971Y56746996D02*
X54063971Y56175567D01*
X54063971Y56175567D02*
X53992542Y56032710D01*
X53992542Y56032710D02*
X53921114Y55961281D01*
X53921114Y55961281D02*
X53778257Y55889853D01*
X53778257Y55889853D02*
X53563971Y55889853D01*
X53563971Y55889853D02*
X53421114Y55961281D01*
X53421114Y55961281D02*
X53349685Y56032710D01*
X53349685Y56032710D02*
X53278257Y56175567D01*
X53278257Y56175567D02*
X53278257Y56746996D01*
X51992542Y53675567D02*
X52063971Y53746996D01*
X52063971Y53746996D02*
X52278257Y53889853D01*
X52278257Y53889853D02*
X52421114Y53961281D01*
X52421114Y53961281D02*
X52635400Y54032710D01*
X52635400Y54032710D02*
X52992542Y54104139D01*
X52992542Y54104139D02*
X53278257Y54104139D01*
X53278257Y54104139D02*
X53635400Y54032710D01*
X53635400Y54032710D02*
X53849685Y53961281D01*
X53849685Y53961281D02*
X53992542Y53889853D01*
X53992542Y53889853D02*
X54206828Y53746996D01*
X54206828Y53746996D02*
X54278257Y53675567D01*
X52706828Y52246996D02*
X52635400Y52318424D01*
X52635400Y52318424D02*
X52563971Y52532710D01*
X52563971Y52532710D02*
X52563971Y52675567D01*
X52563971Y52675567D02*
X52635400Y52889853D01*
X52635400Y52889853D02*
X52778257Y53032710D01*
X52778257Y53032710D02*
X52921114Y53104139D01*
X52921114Y53104139D02*
X53206828Y53175567D01*
X53206828Y53175567D02*
X53421114Y53175567D01*
X53421114Y53175567D02*
X53706828Y53104139D01*
X53706828Y53104139D02*
X53849685Y53032710D01*
X53849685Y53032710D02*
X53992542Y52889853D01*
X53992542Y52889853D02*
X54063971Y52675567D01*
X54063971Y52675567D02*
X54063971Y52532710D01*
X54063971Y52532710D02*
X53992542Y52318424D01*
X53992542Y52318424D02*
X53921114Y52246996D01*
X52563971Y51604139D02*
X54063971Y51604139D01*
X54063971Y51604139D02*
X54063971Y51032710D01*
X54063971Y51032710D02*
X53992542Y50889853D01*
X53992542Y50889853D02*
X53921114Y50818424D01*
X53921114Y50818424D02*
X53778257Y50746996D01*
X53778257Y50746996D02*
X53563971Y50746996D01*
X53563971Y50746996D02*
X53421114Y50818424D01*
X53421114Y50818424D02*
X53349685Y50889853D01*
X53349685Y50889853D02*
X53278257Y51032710D01*
X53278257Y51032710D02*
X53278257Y51604139D01*
X54063971Y50104139D02*
X52849685Y50104139D01*
X52849685Y50104139D02*
X52706828Y50032710D01*
X52706828Y50032710D02*
X52635400Y49961281D01*
X52635400Y49961281D02*
X52563971Y49818424D01*
X52563971Y49818424D02*
X52563971Y49532710D01*
X52563971Y49532710D02*
X52635400Y49389853D01*
X52635400Y49389853D02*
X52706828Y49318424D01*
X52706828Y49318424D02*
X52849685Y49246996D01*
X52849685Y49246996D02*
X54063971Y49246996D01*
X51992542Y48675567D02*
X52063971Y48604138D01*
X52063971Y48604138D02*
X52278257Y48461281D01*
X52278257Y48461281D02*
X52421114Y48389852D01*
X52421114Y48389852D02*
X52635400Y48318424D01*
X52635400Y48318424D02*
X52992542Y48246995D01*
X52992542Y48246995D02*
X53278257Y48246995D01*
X53278257Y48246995D02*
X53635400Y48318424D01*
X53635400Y48318424D02*
X53849685Y48389852D01*
X53849685Y48389852D02*
X53992542Y48461281D01*
X53992542Y48461281D02*
X54206828Y48604138D01*
X54206828Y48604138D02*
X54278257Y48675567D01*
X51503482Y80522781D02*
X50932054Y80522781D01*
X51217768Y80522781D02*
X51217768Y81522781D01*
X51217768Y81522781D02*
X51122530Y81379924D01*
X51122530Y81379924D02*
X51027292Y81284686D01*
X51027292Y81284686D02*
X50932054Y81237067D01*
X51932054Y80522781D02*
X51932054Y81522781D01*
X51932054Y81522781D02*
X52265387Y80808496D01*
X52265387Y80808496D02*
X52598720Y81522781D01*
X52598720Y81522781D02*
X52598720Y80522781D01*
X53074911Y80522781D02*
X53074911Y81522781D01*
X53074911Y81046591D02*
X53646339Y81046591D01*
X53646339Y80522781D02*
X53646339Y81522781D01*
X54027292Y81189448D02*
X54551101Y81189448D01*
X54551101Y81189448D02*
X54027292Y80522781D01*
X54027292Y80522781D02*
X54551101Y80522781D01*
X29085400Y80632708D02*
X29013971Y80418422D01*
X29013971Y80418422D02*
X29013971Y80061280D01*
X29013971Y80061280D02*
X29085400Y79918422D01*
X29085400Y79918422D02*
X29156828Y79846994D01*
X29156828Y79846994D02*
X29299685Y79775565D01*
X29299685Y79775565D02*
X29442542Y79775565D01*
X29442542Y79775565D02*
X29585400Y79846994D01*
X29585400Y79846994D02*
X29656828Y79918422D01*
X29656828Y79918422D02*
X29728257Y80061280D01*
X29728257Y80061280D02*
X29799685Y80346994D01*
X29799685Y80346994D02*
X29871114Y80489851D01*
X29871114Y80489851D02*
X29942542Y80561280D01*
X29942542Y80561280D02*
X30085400Y80632708D01*
X30085400Y80632708D02*
X30228257Y80632708D01*
X30228257Y80632708D02*
X30371114Y80561280D01*
X30371114Y80561280D02*
X30442542Y80489851D01*
X30442542Y80489851D02*
X30513971Y80346994D01*
X30513971Y80346994D02*
X30513971Y79989851D01*
X30513971Y79989851D02*
X30442542Y79775565D01*
X29013971Y78275566D02*
X29728257Y78775566D01*
X29013971Y79132709D02*
X30513971Y79132709D01*
X30513971Y79132709D02*
X30513971Y78561280D01*
X30513971Y78561280D02*
X30442542Y78418423D01*
X30442542Y78418423D02*
X30371114Y78346994D01*
X30371114Y78346994D02*
X30228257Y78275566D01*
X30228257Y78275566D02*
X30013971Y78275566D01*
X30013971Y78275566D02*
X29871114Y78346994D01*
X29871114Y78346994D02*
X29799685Y78418423D01*
X29799685Y78418423D02*
X29728257Y78561280D01*
X29728257Y78561280D02*
X29728257Y79132709D01*
X29442542Y77704137D02*
X29442542Y76989851D01*
X29013971Y77846994D02*
X30513971Y77346994D01*
X30513971Y77346994D02*
X29013971Y76846994D01*
X29013971Y76346995D02*
X30513971Y76346995D01*
X30513971Y76346995D02*
X29442542Y75846995D01*
X29442542Y75846995D02*
X30513971Y75346995D01*
X30513971Y75346995D02*
X29013971Y75346995D01*
X28442542Y73061280D02*
X28513971Y73132709D01*
X28513971Y73132709D02*
X28728257Y73275566D01*
X28728257Y73275566D02*
X28871114Y73346994D01*
X28871114Y73346994D02*
X29085400Y73418423D01*
X29085400Y73418423D02*
X29442542Y73489852D01*
X29442542Y73489852D02*
X29728257Y73489852D01*
X29728257Y73489852D02*
X30085400Y73418423D01*
X30085400Y73418423D02*
X30299685Y73346994D01*
X30299685Y73346994D02*
X30442542Y73275566D01*
X30442542Y73275566D02*
X30656828Y73132709D01*
X30656828Y73132709D02*
X30728257Y73061280D01*
X30371114Y72561280D02*
X30442542Y72489852D01*
X30442542Y72489852D02*
X30513971Y72346994D01*
X30513971Y72346994D02*
X30513971Y71989852D01*
X30513971Y71989852D02*
X30442542Y71846994D01*
X30442542Y71846994D02*
X30371114Y71775566D01*
X30371114Y71775566D02*
X30228257Y71704137D01*
X30228257Y71704137D02*
X30085400Y71704137D01*
X30085400Y71704137D02*
X29871114Y71775566D01*
X29871114Y71775566D02*
X29013971Y72632709D01*
X29013971Y72632709D02*
X29013971Y71704137D01*
X30513971Y70346995D02*
X30513971Y71061281D01*
X30513971Y71061281D02*
X29799685Y71132709D01*
X29799685Y71132709D02*
X29871114Y71061281D01*
X29871114Y71061281D02*
X29942542Y70918423D01*
X29942542Y70918423D02*
X29942542Y70561281D01*
X29942542Y70561281D02*
X29871114Y70418423D01*
X29871114Y70418423D02*
X29799685Y70346995D01*
X29799685Y70346995D02*
X29656828Y70275566D01*
X29656828Y70275566D02*
X29299685Y70275566D01*
X29299685Y70275566D02*
X29156828Y70346995D01*
X29156828Y70346995D02*
X29085400Y70418423D01*
X29085400Y70418423D02*
X29013971Y70561281D01*
X29013971Y70561281D02*
X29013971Y70918423D01*
X29013971Y70918423D02*
X29085400Y71061281D01*
X29085400Y71061281D02*
X29156828Y71132709D01*
X30513971Y68989852D02*
X30513971Y69275567D01*
X30513971Y69275567D02*
X30442542Y69418424D01*
X30442542Y69418424D02*
X30371114Y69489852D01*
X30371114Y69489852D02*
X30156828Y69632710D01*
X30156828Y69632710D02*
X29871114Y69704138D01*
X29871114Y69704138D02*
X29299685Y69704138D01*
X29299685Y69704138D02*
X29156828Y69632710D01*
X29156828Y69632710D02*
X29085400Y69561281D01*
X29085400Y69561281D02*
X29013971Y69418424D01*
X29013971Y69418424D02*
X29013971Y69132710D01*
X29013971Y69132710D02*
X29085400Y68989852D01*
X29085400Y68989852D02*
X29156828Y68918424D01*
X29156828Y68918424D02*
X29299685Y68846995D01*
X29299685Y68846995D02*
X29656828Y68846995D01*
X29656828Y68846995D02*
X29799685Y68918424D01*
X29799685Y68918424D02*
X29871114Y68989852D01*
X29871114Y68989852D02*
X29942542Y69132710D01*
X29942542Y69132710D02*
X29942542Y69418424D01*
X29942542Y69418424D02*
X29871114Y69561281D01*
X29871114Y69561281D02*
X29799685Y69632710D01*
X29799685Y69632710D02*
X29656828Y69704138D01*
X29013971Y68204139D02*
X30513971Y68204139D01*
X29942542Y68204139D02*
X30013971Y68061281D01*
X30013971Y68061281D02*
X30013971Y67775567D01*
X30013971Y67775567D02*
X29942542Y67632710D01*
X29942542Y67632710D02*
X29871114Y67561281D01*
X29871114Y67561281D02*
X29728257Y67489853D01*
X29728257Y67489853D02*
X29299685Y67489853D01*
X29299685Y67489853D02*
X29156828Y67561281D01*
X29156828Y67561281D02*
X29085400Y67632710D01*
X29085400Y67632710D02*
X29013971Y67775567D01*
X29013971Y67775567D02*
X29013971Y68061281D01*
X29013971Y68061281D02*
X29085400Y68204139D01*
X29013971Y66846996D02*
X30013971Y66846996D01*
X30513971Y66846996D02*
X30442542Y66918424D01*
X30442542Y66918424D02*
X30371114Y66846996D01*
X30371114Y66846996D02*
X30442542Y66775567D01*
X30442542Y66775567D02*
X30513971Y66846996D01*
X30513971Y66846996D02*
X30371114Y66846996D01*
X30013971Y66346995D02*
X30013971Y65775567D01*
X30513971Y66132710D02*
X29228257Y66132710D01*
X29228257Y66132710D02*
X29085400Y66061281D01*
X29085400Y66061281D02*
X29013971Y65918424D01*
X29013971Y65918424D02*
X29013971Y65775567D01*
X28442542Y65418424D02*
X28513971Y65346995D01*
X28513971Y65346995D02*
X28728257Y65204138D01*
X28728257Y65204138D02*
X28871114Y65132709D01*
X28871114Y65132709D02*
X29085400Y65061281D01*
X29085400Y65061281D02*
X29442542Y64989852D01*
X29442542Y64989852D02*
X29728257Y64989852D01*
X29728257Y64989852D02*
X30085400Y65061281D01*
X30085400Y65061281D02*
X30299685Y65132709D01*
X30299685Y65132709D02*
X30442542Y65204138D01*
X30442542Y65204138D02*
X30656828Y65346995D01*
X30656828Y65346995D02*
X30728257Y65418424D01*
D11*
X98369819Y12527256D02*
X98369819Y12717732D01*
X98369819Y12717732D02*
X98417438Y12812970D01*
X98417438Y12812970D02*
X98512676Y12908208D01*
X98512676Y12908208D02*
X98703152Y12955827D01*
X98703152Y12955827D02*
X99036485Y12955827D01*
X99036485Y12955827D02*
X99226961Y12908208D01*
X99226961Y12908208D02*
X99322200Y12812970D01*
X99322200Y12812970D02*
X99369819Y12717732D01*
X99369819Y12717732D02*
X99369819Y12527256D01*
X99369819Y12527256D02*
X99322200Y12432018D01*
X99322200Y12432018D02*
X99226961Y12336780D01*
X99226961Y12336780D02*
X99036485Y12289161D01*
X99036485Y12289161D02*
X98703152Y12289161D01*
X98703152Y12289161D02*
X98512676Y12336780D01*
X98512676Y12336780D02*
X98417438Y12432018D01*
X98417438Y12432018D02*
X98369819Y12527256D01*
X99369819Y13384399D02*
X98369819Y13384399D01*
X98369819Y13384399D02*
X99369819Y13955827D01*
X99369819Y13955827D02*
X98369819Y13955827D01*
X75585350Y17856848D02*
X75585350Y17190181D01*
X75347255Y18237800D02*
X75109160Y17523515D01*
X75109160Y17523515D02*
X75728207Y17523515D01*
X76109160Y17285420D02*
X76156779Y17237800D01*
X76156779Y17237800D02*
X76109160Y17190181D01*
X76109160Y17190181D02*
X76061541Y17237800D01*
X76061541Y17237800D02*
X76109160Y17285420D01*
X76109160Y17285420D02*
X76109160Y17190181D01*
X76490112Y18190181D02*
X77156778Y18190181D01*
X77156778Y18190181D02*
X76728207Y17190181D01*
X77537731Y17190181D02*
X77537731Y18190181D01*
X77632969Y17571134D02*
X77918683Y17190181D01*
X77918683Y17856848D02*
X77537731Y17475896D01*
X89870588Y15210181D02*
X89299160Y15210181D01*
X89584874Y15210181D02*
X89584874Y16210181D01*
X89584874Y16210181D02*
X89489636Y16067324D01*
X89489636Y16067324D02*
X89394398Y15972086D01*
X89394398Y15972086D02*
X89299160Y15924467D01*
X90489636Y16210181D02*
X90584874Y16210181D01*
X90584874Y16210181D02*
X90680112Y16162562D01*
X90680112Y16162562D02*
X90727731Y16114943D01*
X90727731Y16114943D02*
X90775350Y16019705D01*
X90775350Y16019705D02*
X90822969Y15829229D01*
X90822969Y15829229D02*
X90822969Y15591134D01*
X90822969Y15591134D02*
X90775350Y15400658D01*
X90775350Y15400658D02*
X90727731Y15305420D01*
X90727731Y15305420D02*
X90680112Y15257800D01*
X90680112Y15257800D02*
X90584874Y15210181D01*
X90584874Y15210181D02*
X90489636Y15210181D01*
X90489636Y15210181D02*
X90394398Y15257800D01*
X90394398Y15257800D02*
X90346779Y15305420D01*
X90346779Y15305420D02*
X90299160Y15400658D01*
X90299160Y15400658D02*
X90251541Y15591134D01*
X90251541Y15591134D02*
X90251541Y15829229D01*
X90251541Y15829229D02*
X90299160Y16019705D01*
X90299160Y16019705D02*
X90346779Y16114943D01*
X90346779Y16114943D02*
X90394398Y16162562D01*
X90394398Y16162562D02*
X90489636Y16210181D01*
X91442017Y16210181D02*
X91537255Y16210181D01*
X91537255Y16210181D02*
X91632493Y16162562D01*
X91632493Y16162562D02*
X91680112Y16114943D01*
X91680112Y16114943D02*
X91727731Y16019705D01*
X91727731Y16019705D02*
X91775350Y15829229D01*
X91775350Y15829229D02*
X91775350Y15591134D01*
X91775350Y15591134D02*
X91727731Y15400658D01*
X91727731Y15400658D02*
X91680112Y15305420D01*
X91680112Y15305420D02*
X91632493Y15257800D01*
X91632493Y15257800D02*
X91537255Y15210181D01*
X91537255Y15210181D02*
X91442017Y15210181D01*
X91442017Y15210181D02*
X91346779Y15257800D01*
X91346779Y15257800D02*
X91299160Y15305420D01*
X91299160Y15305420D02*
X91251541Y15400658D01*
X91251541Y15400658D02*
X91203922Y15591134D01*
X91203922Y15591134D02*
X91203922Y15829229D01*
X91203922Y15829229D02*
X91251541Y16019705D01*
X91251541Y16019705D02*
X91299160Y16114943D01*
X91299160Y16114943D02*
X91346779Y16162562D01*
X91346779Y16162562D02*
X91442017Y16210181D01*
X92632493Y15876848D02*
X92632493Y15210181D01*
X92203922Y15876848D02*
X92203922Y15353039D01*
X92203922Y15353039D02*
X92251541Y15257800D01*
X92251541Y15257800D02*
X92346779Y15210181D01*
X92346779Y15210181D02*
X92489636Y15210181D01*
X92489636Y15210181D02*
X92584874Y15257800D01*
X92584874Y15257800D02*
X92632493Y15305420D01*
X93442017Y15733991D02*
X93108684Y15733991D01*
X93108684Y15210181D02*
X93108684Y16210181D01*
X93108684Y16210181D02*
X93584874Y16210181D01*
D12*
X66521615Y94196572D02*
X66521615Y95696572D01*
X67378758Y94196572D02*
X66735901Y95053715D01*
X67378758Y95696572D02*
X66521615Y94839429D01*
X68664473Y95696572D02*
X68378758Y95696572D01*
X68378758Y95696572D02*
X68235901Y95625143D01*
X68235901Y95625143D02*
X68164473Y95553715D01*
X68164473Y95553715D02*
X68021615Y95339429D01*
X68021615Y95339429D02*
X67950187Y95053715D01*
X67950187Y95053715D02*
X67950187Y94482286D01*
X67950187Y94482286D02*
X68021615Y94339429D01*
X68021615Y94339429D02*
X68093044Y94268000D01*
X68093044Y94268000D02*
X68235901Y94196572D01*
X68235901Y94196572D02*
X68521615Y94196572D01*
X68521615Y94196572D02*
X68664473Y94268000D01*
X68664473Y94268000D02*
X68735901Y94339429D01*
X68735901Y94339429D02*
X68807330Y94482286D01*
X68807330Y94482286D02*
X68807330Y94839429D01*
X68807330Y94839429D02*
X68735901Y94982286D01*
X68735901Y94982286D02*
X68664473Y95053715D01*
X68664473Y95053715D02*
X68521615Y95125143D01*
X68521615Y95125143D02*
X68235901Y95125143D01*
X68235901Y95125143D02*
X68093044Y95053715D01*
X68093044Y95053715D02*
X68021615Y94982286D01*
X68021615Y94982286D02*
X67950187Y94839429D01*
X70164472Y95696572D02*
X69450186Y95696572D01*
X69450186Y95696572D02*
X69378758Y94982286D01*
X69378758Y94982286D02*
X69450186Y95053715D01*
X69450186Y95053715D02*
X69593044Y95125143D01*
X69593044Y95125143D02*
X69950186Y95125143D01*
X69950186Y95125143D02*
X70093044Y95053715D01*
X70093044Y95053715D02*
X70164472Y94982286D01*
X70164472Y94982286D02*
X70235901Y94839429D01*
X70235901Y94839429D02*
X70235901Y94482286D01*
X70235901Y94482286D02*
X70164472Y94339429D01*
X70164472Y94339429D02*
X70093044Y94268000D01*
X70093044Y94268000D02*
X69950186Y94196572D01*
X69950186Y94196572D02*
X69593044Y94196572D01*
X69593044Y94196572D02*
X69450186Y94268000D01*
X69450186Y94268000D02*
X69378758Y94339429D01*
X71164472Y95696572D02*
X71307329Y95696572D01*
X71307329Y95696572D02*
X71450186Y95625143D01*
X71450186Y95625143D02*
X71521615Y95553715D01*
X71521615Y95553715D02*
X71593043Y95410858D01*
X71593043Y95410858D02*
X71664472Y95125143D01*
X71664472Y95125143D02*
X71664472Y94768000D01*
X71664472Y94768000D02*
X71593043Y94482286D01*
X71593043Y94482286D02*
X71521615Y94339429D01*
X71521615Y94339429D02*
X71450186Y94268000D01*
X71450186Y94268000D02*
X71307329Y94196572D01*
X71307329Y94196572D02*
X71164472Y94196572D01*
X71164472Y94196572D02*
X71021615Y94268000D01*
X71021615Y94268000D02*
X70950186Y94339429D01*
X70950186Y94339429D02*
X70878757Y94482286D01*
X70878757Y94482286D02*
X70807329Y94768000D01*
X70807329Y94768000D02*
X70807329Y95125143D01*
X70807329Y95125143D02*
X70878757Y95410858D01*
X70878757Y95410858D02*
X70950186Y95553715D01*
X70950186Y95553715D02*
X71021615Y95625143D01*
X71021615Y95625143D02*
X71164472Y95696572D01*
X72950186Y95196572D02*
X72950186Y94196572D01*
X72593043Y95768000D02*
X72235900Y94696572D01*
X72235900Y94696572D02*
X73164471Y94696572D01*
X73735899Y94768000D02*
X74878757Y94768000D01*
X75521614Y94268000D02*
X75735900Y94196572D01*
X75735900Y94196572D02*
X76093042Y94196572D01*
X76093042Y94196572D02*
X76235900Y94268000D01*
X76235900Y94268000D02*
X76307328Y94339429D01*
X76307328Y94339429D02*
X76378757Y94482286D01*
X76378757Y94482286D02*
X76378757Y94625143D01*
X76378757Y94625143D02*
X76307328Y94768000D01*
X76307328Y94768000D02*
X76235900Y94839429D01*
X76235900Y94839429D02*
X76093042Y94910858D01*
X76093042Y94910858D02*
X75807328Y94982286D01*
X75807328Y94982286D02*
X75664471Y95053715D01*
X75664471Y95053715D02*
X75593042Y95125143D01*
X75593042Y95125143D02*
X75521614Y95268000D01*
X75521614Y95268000D02*
X75521614Y95410858D01*
X75521614Y95410858D02*
X75593042Y95553715D01*
X75593042Y95553715D02*
X75664471Y95625143D01*
X75664471Y95625143D02*
X75807328Y95696572D01*
X75807328Y95696572D02*
X76164471Y95696572D01*
X76164471Y95696572D02*
X76378757Y95625143D01*
X77521613Y94982286D02*
X77735899Y94910858D01*
X77735899Y94910858D02*
X77807328Y94839429D01*
X77807328Y94839429D02*
X77878756Y94696572D01*
X77878756Y94696572D02*
X77878756Y94482286D01*
X77878756Y94482286D02*
X77807328Y94339429D01*
X77807328Y94339429D02*
X77735899Y94268000D01*
X77735899Y94268000D02*
X77593042Y94196572D01*
X77593042Y94196572D02*
X77021613Y94196572D01*
X77021613Y94196572D02*
X77021613Y95696572D01*
X77021613Y95696572D02*
X77521613Y95696572D01*
X77521613Y95696572D02*
X77664471Y95625143D01*
X77664471Y95625143D02*
X77735899Y95553715D01*
X77735899Y95553715D02*
X77807328Y95410858D01*
X77807328Y95410858D02*
X77807328Y95268000D01*
X77807328Y95268000D02*
X77735899Y95125143D01*
X77735899Y95125143D02*
X77664471Y95053715D01*
X77664471Y95053715D02*
X77521613Y94982286D01*
X77521613Y94982286D02*
X77021613Y94982286D01*
X79378756Y94339429D02*
X79307328Y94268000D01*
X79307328Y94268000D02*
X79093042Y94196572D01*
X79093042Y94196572D02*
X78950185Y94196572D01*
X78950185Y94196572D02*
X78735899Y94268000D01*
X78735899Y94268000D02*
X78593042Y94410858D01*
X78593042Y94410858D02*
X78521613Y94553715D01*
X78521613Y94553715D02*
X78450185Y94839429D01*
X78450185Y94839429D02*
X78450185Y95053715D01*
X78450185Y95053715D02*
X78521613Y95339429D01*
X78521613Y95339429D02*
X78593042Y95482286D01*
X78593042Y95482286D02*
X78735899Y95625143D01*
X78735899Y95625143D02*
X78950185Y95696572D01*
X78950185Y95696572D02*
X79093042Y95696572D01*
X79093042Y95696572D02*
X79307328Y95625143D01*
X79307328Y95625143D02*
X79378756Y95553715D01*
X82021613Y94196572D02*
X81521613Y94910858D01*
X81164470Y94196572D02*
X81164470Y95696572D01*
X81164470Y95696572D02*
X81735899Y95696572D01*
X81735899Y95696572D02*
X81878756Y95625143D01*
X81878756Y95625143D02*
X81950185Y95553715D01*
X81950185Y95553715D02*
X82021613Y95410858D01*
X82021613Y95410858D02*
X82021613Y95196572D01*
X82021613Y95196572D02*
X81950185Y95053715D01*
X81950185Y95053715D02*
X81878756Y94982286D01*
X81878756Y94982286D02*
X81735899Y94910858D01*
X81735899Y94910858D02*
X81164470Y94910858D01*
X82664470Y94982286D02*
X83164470Y94982286D01*
X83378756Y94196572D02*
X82664470Y94196572D01*
X82664470Y94196572D02*
X82664470Y95696572D01*
X82664470Y95696572D02*
X83378756Y95696572D01*
X83807328Y95696572D02*
X84307328Y94196572D01*
X84307328Y94196572D02*
X84807328Y95696572D01*
X86093042Y94196572D02*
X85235899Y94196572D01*
X85664470Y94196572D02*
X85664470Y95696572D01*
X85664470Y95696572D02*
X85521613Y95482286D01*
X85521613Y95482286D02*
X85378756Y95339429D01*
X85378756Y95339429D02*
X85235899Y95268000D01*
D11*
X69123152Y7875351D02*
X69789819Y7875351D01*
X68742200Y7637256D02*
X69456485Y7399161D01*
X69456485Y7399161D02*
X69456485Y8018208D01*
X68789819Y8303923D02*
X68789819Y8970589D01*
X68789819Y8970589D02*
X69789819Y8542018D01*
X68789819Y9542018D02*
X68789819Y9637256D01*
X68789819Y9637256D02*
X68837438Y9732494D01*
X68837438Y9732494D02*
X68885057Y9780113D01*
X68885057Y9780113D02*
X68980295Y9827732D01*
X68980295Y9827732D02*
X69170771Y9875351D01*
X69170771Y9875351D02*
X69408866Y9875351D01*
X69408866Y9875351D02*
X69599342Y9827732D01*
X69599342Y9827732D02*
X69694580Y9780113D01*
X69694580Y9780113D02*
X69742200Y9732494D01*
X69742200Y9732494D02*
X69789819Y9637256D01*
X69789819Y9637256D02*
X69789819Y9542018D01*
X69789819Y9542018D02*
X69742200Y9446780D01*
X69742200Y9446780D02*
X69694580Y9399161D01*
X69694580Y9399161D02*
X69599342Y9351542D01*
X69599342Y9351542D02*
X69408866Y9303923D01*
X69408866Y9303923D02*
X69170771Y9303923D01*
X69170771Y9303923D02*
X68980295Y9351542D01*
X68980295Y9351542D02*
X68885057Y9399161D01*
X68885057Y9399161D02*
X68837438Y9446780D01*
X68837438Y9446780D02*
X68789819Y9542018D01*
X5250112Y9513991D02*
X4916779Y9513991D01*
X4916779Y8990181D02*
X4916779Y9990181D01*
X4916779Y9990181D02*
X5392969Y9990181D01*
X5631065Y9990181D02*
X6202493Y9990181D01*
X5916779Y8990181D02*
X5916779Y9990181D01*
X6535827Y8990181D02*
X6535827Y9990181D01*
X6535827Y9990181D02*
X6773922Y9990181D01*
X6773922Y9990181D02*
X6916779Y9942562D01*
X6916779Y9942562D02*
X7012017Y9847324D01*
X7012017Y9847324D02*
X7059636Y9752086D01*
X7059636Y9752086D02*
X7107255Y9561610D01*
X7107255Y9561610D02*
X7107255Y9418753D01*
X7107255Y9418753D02*
X7059636Y9228277D01*
X7059636Y9228277D02*
X7012017Y9133039D01*
X7012017Y9133039D02*
X6916779Y9037800D01*
X6916779Y9037800D02*
X6773922Y8990181D01*
X6773922Y8990181D02*
X6535827Y8990181D01*
X7535827Y8990181D02*
X7535827Y9990181D01*
X8107255Y9990181D02*
X8250112Y9847324D01*
X8012017Y9704467D02*
X8154874Y9561610D01*
X8012017Y9085420D02*
X8250112Y9180658D01*
X8250112Y9180658D02*
X8392969Y9275896D01*
X8392969Y9275896D02*
X8488207Y9371134D01*
X8488207Y9371134D02*
X8631064Y9752086D01*
X9202493Y10037800D02*
X9202493Y9513991D01*
X9535826Y10037800D02*
X9535826Y9656848D01*
X9535826Y9656848D02*
X9535826Y9466372D01*
X9535826Y9466372D02*
X9440588Y9275896D01*
X9440588Y9275896D02*
X9392969Y9180658D01*
X9392969Y9180658D02*
X9250112Y9037800D01*
X10059636Y9942562D02*
X10726302Y9942562D01*
X10726302Y9942562D02*
X10678683Y9847324D01*
X10678683Y9847324D02*
X10583445Y9704467D01*
X10583445Y9704467D02*
X10440588Y9609229D01*
X10345350Y9799705D02*
X10345350Y9466372D01*
X10345350Y9466372D02*
X10345350Y9371134D01*
X10345350Y9371134D02*
X10297731Y9228277D01*
X10297731Y9228277D02*
X10202493Y8990181D01*
X11250112Y9942562D02*
X11250112Y9561610D01*
X11250112Y9561610D02*
X11202493Y9371134D01*
X11202493Y9371134D02*
X11154874Y9228277D01*
X11154874Y9228277D02*
X11107255Y9085420D01*
X11440588Y10037800D02*
X11440588Y9085420D01*
X11440588Y9085420D02*
X11535826Y9180658D01*
X11535826Y9180658D02*
X11631064Y9323515D01*
X11631064Y9323515D02*
X11726302Y9513991D01*
X93908207Y24630181D02*
X93574874Y25106372D01*
X93336779Y24630181D02*
X93336779Y25630181D01*
X93336779Y25630181D02*
X93717731Y25630181D01*
X93717731Y25630181D02*
X93812969Y25582562D01*
X93812969Y25582562D02*
X93860588Y25534943D01*
X93860588Y25534943D02*
X93908207Y25439705D01*
X93908207Y25439705D02*
X93908207Y25296848D01*
X93908207Y25296848D02*
X93860588Y25201610D01*
X93860588Y25201610D02*
X93812969Y25153991D01*
X93812969Y25153991D02*
X93717731Y25106372D01*
X93717731Y25106372D02*
X93336779Y25106372D01*
X94336779Y25153991D02*
X94670112Y25153991D01*
X94812969Y24630181D02*
X94336779Y24630181D01*
X94336779Y24630181D02*
X94336779Y25630181D01*
X94336779Y25630181D02*
X94812969Y25630181D01*
X95193922Y24677800D02*
X95336779Y24630181D01*
X95336779Y24630181D02*
X95574874Y24630181D01*
X95574874Y24630181D02*
X95670112Y24677800D01*
X95670112Y24677800D02*
X95717731Y24725420D01*
X95717731Y24725420D02*
X95765350Y24820658D01*
X95765350Y24820658D02*
X95765350Y24915896D01*
X95765350Y24915896D02*
X95717731Y25011134D01*
X95717731Y25011134D02*
X95670112Y25058753D01*
X95670112Y25058753D02*
X95574874Y25106372D01*
X95574874Y25106372D02*
X95384398Y25153991D01*
X95384398Y25153991D02*
X95289160Y25201610D01*
X95289160Y25201610D02*
X95241541Y25249229D01*
X95241541Y25249229D02*
X95193922Y25344467D01*
X95193922Y25344467D02*
X95193922Y25439705D01*
X95193922Y25439705D02*
X95241541Y25534943D01*
X95241541Y25534943D02*
X95289160Y25582562D01*
X95289160Y25582562D02*
X95384398Y25630181D01*
X95384398Y25630181D02*
X95622493Y25630181D01*
X95622493Y25630181D02*
X95765350Y25582562D01*
X96193922Y25153991D02*
X96527255Y25153991D01*
X96670112Y24630181D02*
X96193922Y24630181D01*
X96193922Y24630181D02*
X96193922Y25630181D01*
X96193922Y25630181D02*
X96670112Y25630181D01*
X96955827Y25630181D02*
X97527255Y25630181D01*
X97241541Y24630181D02*
X97241541Y25630181D01*
X98369819Y19027256D02*
X98369819Y19217732D01*
X98369819Y19217732D02*
X98417438Y19312970D01*
X98417438Y19312970D02*
X98512676Y19408208D01*
X98512676Y19408208D02*
X98703152Y19455827D01*
X98703152Y19455827D02*
X99036485Y19455827D01*
X99036485Y19455827D02*
X99226961Y19408208D01*
X99226961Y19408208D02*
X99322200Y19312970D01*
X99322200Y19312970D02*
X99369819Y19217732D01*
X99369819Y19217732D02*
X99369819Y19027256D01*
X99369819Y19027256D02*
X99322200Y18932018D01*
X99322200Y18932018D02*
X99226961Y18836780D01*
X99226961Y18836780D02*
X99036485Y18789161D01*
X99036485Y18789161D02*
X98703152Y18789161D01*
X98703152Y18789161D02*
X98512676Y18836780D01*
X98512676Y18836780D02*
X98417438Y18932018D01*
X98417438Y18932018D02*
X98369819Y19027256D01*
X98846009Y20217732D02*
X98846009Y19884399D01*
X99369819Y19884399D02*
X98369819Y19884399D01*
X98369819Y19884399D02*
X98369819Y20360589D01*
X98846009Y21074875D02*
X98846009Y20741542D01*
X99369819Y20741542D02*
X98369819Y20741542D01*
X98369819Y20741542D02*
X98369819Y21217732D01*
D10*
X87102780Y79220327D02*
X88102780Y79220327D01*
X88150400Y78029852D02*
X86864685Y78886994D01*
X88102780Y77506042D02*
X88102780Y77315566D01*
X88102780Y77315566D02*
X88055161Y77220328D01*
X88055161Y77220328D02*
X87959923Y77125090D01*
X87959923Y77125090D02*
X87769447Y77077471D01*
X87769447Y77077471D02*
X87436114Y77077471D01*
X87436114Y77077471D02*
X87245638Y77125090D01*
X87245638Y77125090D02*
X87150400Y77220328D01*
X87150400Y77220328D02*
X87102780Y77315566D01*
X87102780Y77315566D02*
X87102780Y77506042D01*
X87102780Y77506042D02*
X87150400Y77601280D01*
X87150400Y77601280D02*
X87245638Y77696518D01*
X87245638Y77696518D02*
X87436114Y77744137D01*
X87436114Y77744137D02*
X87769447Y77744137D01*
X87769447Y77744137D02*
X87959923Y77696518D01*
X87959923Y77696518D02*
X88055161Y77601280D01*
X88055161Y77601280D02*
X88102780Y77506042D01*
X87483733Y76648899D02*
X87483733Y75886994D01*
X87388495Y75458423D02*
X87388495Y74982233D01*
X87102780Y75553661D02*
X88102780Y75220328D01*
X88102780Y75220328D02*
X87102780Y74886995D01*
D11*
X74336779Y92130181D02*
X74336779Y93130181D01*
X74908207Y92130181D02*
X74479636Y92701610D01*
X74908207Y93130181D02*
X74336779Y92558753D01*
X75336779Y93130181D02*
X75336779Y92320658D01*
X75336779Y92320658D02*
X75384398Y92225420D01*
X75384398Y92225420D02*
X75432017Y92177800D01*
X75432017Y92177800D02*
X75527255Y92130181D01*
X75527255Y92130181D02*
X75717731Y92130181D01*
X75717731Y92130181D02*
X75812969Y92177800D01*
X75812969Y92177800D02*
X75860588Y92225420D01*
X75860588Y92225420D02*
X75908207Y92320658D01*
X75908207Y92320658D02*
X75908207Y93130181D01*
X76384398Y92130181D02*
X76384398Y93130181D01*
X76384398Y93130181D02*
X76955826Y92130181D01*
X76955826Y92130181D02*
X76955826Y93130181D01*
X77432017Y92130181D02*
X77432017Y93130181D01*
X77908207Y92511134D02*
X78670112Y92511134D01*
X79146302Y92130181D02*
X79146302Y93130181D01*
X79146302Y93130181D02*
X79717730Y92130181D01*
X79717730Y92130181D02*
X79717730Y93130181D01*
X80193921Y92653991D02*
X80527254Y92653991D01*
X80670111Y92130181D02*
X80193921Y92130181D01*
X80193921Y92130181D02*
X80193921Y93130181D01*
X80193921Y93130181D02*
X80670111Y93130181D01*
X80955826Y93130181D02*
X81527254Y93130181D01*
X81241540Y92130181D02*
X81241540Y93130181D01*
X82574874Y93034943D02*
X82622493Y93082562D01*
X82622493Y93082562D02*
X82717731Y93130181D01*
X82717731Y93130181D02*
X82955826Y93130181D01*
X82955826Y93130181D02*
X83051064Y93082562D01*
X83051064Y93082562D02*
X83098683Y93034943D01*
X83098683Y93034943D02*
X83146302Y92939705D01*
X83146302Y92939705D02*
X83146302Y92844467D01*
X83146302Y92844467D02*
X83098683Y92701610D01*
X83098683Y92701610D02*
X82527255Y92130181D01*
X82527255Y92130181D02*
X83146302Y92130181D01*
X83765350Y93130181D02*
X83860588Y93130181D01*
X83860588Y93130181D02*
X83955826Y93082562D01*
X83955826Y93082562D02*
X84003445Y93034943D01*
X84003445Y93034943D02*
X84051064Y92939705D01*
X84051064Y92939705D02*
X84098683Y92749229D01*
X84098683Y92749229D02*
X84098683Y92511134D01*
X84098683Y92511134D02*
X84051064Y92320658D01*
X84051064Y92320658D02*
X84003445Y92225420D01*
X84003445Y92225420D02*
X83955826Y92177800D01*
X83955826Y92177800D02*
X83860588Y92130181D01*
X83860588Y92130181D02*
X83765350Y92130181D01*
X83765350Y92130181D02*
X83670112Y92177800D01*
X83670112Y92177800D02*
X83622493Y92225420D01*
X83622493Y92225420D02*
X83574874Y92320658D01*
X83574874Y92320658D02*
X83527255Y92511134D01*
X83527255Y92511134D02*
X83527255Y92749229D01*
X83527255Y92749229D02*
X83574874Y92939705D01*
X83574874Y92939705D02*
X83622493Y93034943D01*
X83622493Y93034943D02*
X83670112Y93082562D01*
X83670112Y93082562D02*
X83765350Y93130181D01*
X84479636Y93034943D02*
X84527255Y93082562D01*
X84527255Y93082562D02*
X84622493Y93130181D01*
X84622493Y93130181D02*
X84860588Y93130181D01*
X84860588Y93130181D02*
X84955826Y93082562D01*
X84955826Y93082562D02*
X85003445Y93034943D01*
X85003445Y93034943D02*
X85051064Y92939705D01*
X85051064Y92939705D02*
X85051064Y92844467D01*
X85051064Y92844467D02*
X85003445Y92701610D01*
X85003445Y92701610D02*
X84432017Y92130181D01*
X84432017Y92130181D02*
X85051064Y92130181D01*
X85908207Y92796848D02*
X85908207Y92130181D01*
X85670112Y93177800D02*
X85432017Y92463515D01*
X85432017Y92463515D02*
X86051064Y92463515D01*
X14499819Y26620589D02*
X14499819Y26049161D01*
X14499819Y26334875D02*
X13499819Y26334875D01*
X13499819Y26334875D02*
X13642676Y26239637D01*
X13642676Y26239637D02*
X13737914Y26144399D01*
X13737914Y26144399D02*
X13785533Y26049161D01*
X14499819Y27049161D02*
X13499819Y27049161D01*
X13499819Y27049161D02*
X14214104Y27382494D01*
X14214104Y27382494D02*
X13499819Y27715827D01*
X13499819Y27715827D02*
X14499819Y27715827D01*
D10*
X75303971Y72104137D02*
X76018257Y72604137D01*
X75303971Y72961280D02*
X76803971Y72961280D01*
X76803971Y72961280D02*
X76803971Y72389851D01*
X76803971Y72389851D02*
X76732542Y72246994D01*
X76732542Y72246994D02*
X76661114Y72175565D01*
X76661114Y72175565D02*
X76518257Y72104137D01*
X76518257Y72104137D02*
X76303971Y72104137D01*
X76303971Y72104137D02*
X76161114Y72175565D01*
X76161114Y72175565D02*
X76089685Y72246994D01*
X76089685Y72246994D02*
X76018257Y72389851D01*
X76018257Y72389851D02*
X76018257Y72961280D01*
X76803971Y70818422D02*
X76803971Y71104137D01*
X76803971Y71104137D02*
X76732542Y71246994D01*
X76732542Y71246994D02*
X76661114Y71318422D01*
X76661114Y71318422D02*
X76446828Y71461280D01*
X76446828Y71461280D02*
X76161114Y71532708D01*
X76161114Y71532708D02*
X75589685Y71532708D01*
X75589685Y71532708D02*
X75446828Y71461280D01*
X75446828Y71461280D02*
X75375400Y71389851D01*
X75375400Y71389851D02*
X75303971Y71246994D01*
X75303971Y71246994D02*
X75303971Y70961280D01*
X75303971Y70961280D02*
X75375400Y70818422D01*
X75375400Y70818422D02*
X75446828Y70746994D01*
X75446828Y70746994D02*
X75589685Y70675565D01*
X75589685Y70675565D02*
X75946828Y70675565D01*
X75946828Y70675565D02*
X76089685Y70746994D01*
X76089685Y70746994D02*
X76161114Y70818422D01*
X76161114Y70818422D02*
X76232542Y70961280D01*
X76232542Y70961280D02*
X76232542Y71246994D01*
X76232542Y71246994D02*
X76161114Y71389851D01*
X76161114Y71389851D02*
X76089685Y71461280D01*
X76089685Y71461280D02*
X75946828Y71532708D01*
X76803971Y69318423D02*
X76803971Y70032709D01*
X76803971Y70032709D02*
X76089685Y70104137D01*
X76089685Y70104137D02*
X76161114Y70032709D01*
X76161114Y70032709D02*
X76232542Y69889851D01*
X76232542Y69889851D02*
X76232542Y69532709D01*
X76232542Y69532709D02*
X76161114Y69389851D01*
X76161114Y69389851D02*
X76089685Y69318423D01*
X76089685Y69318423D02*
X75946828Y69246994D01*
X75946828Y69246994D02*
X75589685Y69246994D01*
X75589685Y69246994D02*
X75446828Y69318423D01*
X75446828Y69318423D02*
X75375400Y69389851D01*
X75375400Y69389851D02*
X75303971Y69532709D01*
X75303971Y69532709D02*
X75303971Y69889851D01*
X75303971Y69889851D02*
X75375400Y70032709D01*
X75375400Y70032709D02*
X75446828Y70104137D01*
X76803971Y68746995D02*
X76803971Y67818423D01*
X76803971Y67818423D02*
X76232542Y68318423D01*
X76232542Y68318423D02*
X76232542Y68104138D01*
X76232542Y68104138D02*
X76161114Y67961280D01*
X76161114Y67961280D02*
X76089685Y67889852D01*
X76089685Y67889852D02*
X75946828Y67818423D01*
X75946828Y67818423D02*
X75589685Y67818423D01*
X75589685Y67818423D02*
X75446828Y67889852D01*
X75446828Y67889852D02*
X75375400Y67961280D01*
X75375400Y67961280D02*
X75303971Y68104138D01*
X75303971Y68104138D02*
X75303971Y68532709D01*
X75303971Y68532709D02*
X75375400Y68675566D01*
X75375400Y68675566D02*
X75446828Y68746995D01*
X76661114Y67246995D02*
X76732542Y67175567D01*
X76732542Y67175567D02*
X76803971Y67032709D01*
X76803971Y67032709D02*
X76803971Y66675567D01*
X76803971Y66675567D02*
X76732542Y66532709D01*
X76732542Y66532709D02*
X76661114Y66461281D01*
X76661114Y66461281D02*
X76518257Y66389852D01*
X76518257Y66389852D02*
X76375400Y66389852D01*
X76375400Y66389852D02*
X76161114Y66461281D01*
X76161114Y66461281D02*
X75303971Y67318424D01*
X75303971Y67318424D02*
X75303971Y66389852D01*
X74732542Y64175567D02*
X74803971Y64246996D01*
X74803971Y64246996D02*
X75018257Y64389853D01*
X75018257Y64389853D02*
X75161114Y64461281D01*
X75161114Y64461281D02*
X75375400Y64532710D01*
X75375400Y64532710D02*
X75732542Y64604139D01*
X75732542Y64604139D02*
X76018257Y64604139D01*
X76018257Y64604139D02*
X76375400Y64532710D01*
X76375400Y64532710D02*
X76589685Y64461281D01*
X76589685Y64461281D02*
X76732542Y64389853D01*
X76732542Y64389853D02*
X76946828Y64246996D01*
X76946828Y64246996D02*
X77018257Y64175567D01*
X75303971Y62746996D02*
X76018257Y63246996D01*
X75303971Y63604139D02*
X76803971Y63604139D01*
X76803971Y63604139D02*
X76803971Y63032710D01*
X76803971Y63032710D02*
X76732542Y62889853D01*
X76732542Y62889853D02*
X76661114Y62818424D01*
X76661114Y62818424D02*
X76518257Y62746996D01*
X76518257Y62746996D02*
X76303971Y62746996D01*
X76303971Y62746996D02*
X76161114Y62818424D01*
X76161114Y62818424D02*
X76089685Y62889853D01*
X76089685Y62889853D02*
X76018257Y63032710D01*
X76018257Y63032710D02*
X76018257Y63604139D01*
X75303971Y62104139D02*
X76803971Y62104139D01*
X76803971Y61104138D02*
X76803971Y60818424D01*
X76803971Y60818424D02*
X76732542Y60675567D01*
X76732542Y60675567D02*
X76589685Y60532710D01*
X76589685Y60532710D02*
X76303971Y60461281D01*
X76303971Y60461281D02*
X75803971Y60461281D01*
X75803971Y60461281D02*
X75518257Y60532710D01*
X75518257Y60532710D02*
X75375400Y60675567D01*
X75375400Y60675567D02*
X75303971Y60818424D01*
X75303971Y60818424D02*
X75303971Y61104138D01*
X75303971Y61104138D02*
X75375400Y61246995D01*
X75375400Y61246995D02*
X75518257Y61389853D01*
X75518257Y61389853D02*
X75803971Y61461281D01*
X75803971Y61461281D02*
X76303971Y61461281D01*
X76303971Y61461281D02*
X76589685Y61389853D01*
X76589685Y61389853D02*
X76732542Y61246995D01*
X76732542Y61246995D02*
X76803971Y61104138D01*
X76803971Y60032709D02*
X76803971Y59175566D01*
X75303971Y59604138D02*
X76803971Y59604138D01*
X74732542Y58818424D02*
X74803971Y58746995D01*
X74803971Y58746995D02*
X75018257Y58604138D01*
X75018257Y58604138D02*
X75161114Y58532709D01*
X75161114Y58532709D02*
X75375400Y58461281D01*
X75375400Y58461281D02*
X75732542Y58389852D01*
X75732542Y58389852D02*
X76018257Y58389852D01*
X76018257Y58389852D02*
X76375400Y58461281D01*
X76375400Y58461281D02*
X76589685Y58532709D01*
X76589685Y58532709D02*
X76732542Y58604138D01*
X76732542Y58604138D02*
X76946828Y58746995D01*
X76946828Y58746995D02*
X77018257Y58818424D01*
D11*
X3289819Y41531542D02*
X3289819Y42150589D01*
X3289819Y42150589D02*
X3670771Y41817256D01*
X3670771Y41817256D02*
X3670771Y41960113D01*
X3670771Y41960113D02*
X3718390Y42055351D01*
X3718390Y42055351D02*
X3766009Y42102970D01*
X3766009Y42102970D02*
X3861247Y42150589D01*
X3861247Y42150589D02*
X4099342Y42150589D01*
X4099342Y42150589D02*
X4194580Y42102970D01*
X4194580Y42102970D02*
X4242200Y42055351D01*
X4242200Y42055351D02*
X4289819Y41960113D01*
X4289819Y41960113D02*
X4289819Y41674399D01*
X4289819Y41674399D02*
X4242200Y41579161D01*
X4242200Y41579161D02*
X4194580Y41531542D01*
X3289819Y42769637D02*
X3289819Y42864875D01*
X3289819Y42864875D02*
X3337438Y42960113D01*
X3337438Y42960113D02*
X3385057Y43007732D01*
X3385057Y43007732D02*
X3480295Y43055351D01*
X3480295Y43055351D02*
X3670771Y43102970D01*
X3670771Y43102970D02*
X3908866Y43102970D01*
X3908866Y43102970D02*
X4099342Y43055351D01*
X4099342Y43055351D02*
X4194580Y43007732D01*
X4194580Y43007732D02*
X4242200Y42960113D01*
X4242200Y42960113D02*
X4289819Y42864875D01*
X4289819Y42864875D02*
X4289819Y42769637D01*
X4289819Y42769637D02*
X4242200Y42674399D01*
X4242200Y42674399D02*
X4194580Y42626780D01*
X4194580Y42626780D02*
X4099342Y42579161D01*
X4099342Y42579161D02*
X3908866Y42531542D01*
X3908866Y42531542D02*
X3670771Y42531542D01*
X3670771Y42531542D02*
X3480295Y42579161D01*
X3480295Y42579161D02*
X3385057Y42626780D01*
X3385057Y42626780D02*
X3337438Y42674399D01*
X3337438Y42674399D02*
X3289819Y42769637D01*
X4289819Y43531542D02*
X3289819Y43531542D01*
X3289819Y43531542D02*
X3289819Y43912494D01*
X3289819Y43912494D02*
X3337438Y44007732D01*
X3337438Y44007732D02*
X3385057Y44055351D01*
X3385057Y44055351D02*
X3480295Y44102970D01*
X3480295Y44102970D02*
X3623152Y44102970D01*
X3623152Y44102970D02*
X3718390Y44055351D01*
X3718390Y44055351D02*
X3766009Y44007732D01*
X3766009Y44007732D02*
X3813628Y43912494D01*
X3813628Y43912494D02*
X3813628Y43531542D01*
X3766009Y44864875D02*
X3766009Y44531542D01*
X4289819Y44531542D02*
X3289819Y44531542D01*
X3289819Y44531542D02*
X3289819Y45007732D01*
D10*
X46673971Y26074137D02*
X46673971Y25074137D01*
X46673971Y25074137D02*
X45173971Y25716994D01*
X46173971Y23859851D02*
X45173971Y23859851D01*
X46745400Y24216994D02*
X45673971Y24574137D01*
X45673971Y24574137D02*
X45673971Y23645566D01*
X45173971Y22359852D02*
X45173971Y23074138D01*
X45173971Y23074138D02*
X46673971Y23074138D01*
X45245400Y21931280D02*
X45173971Y21716994D01*
X45173971Y21716994D02*
X45173971Y21359852D01*
X45173971Y21359852D02*
X45245400Y21216994D01*
X45245400Y21216994D02*
X45316828Y21145566D01*
X45316828Y21145566D02*
X45459685Y21074137D01*
X45459685Y21074137D02*
X45602542Y21074137D01*
X45602542Y21074137D02*
X45745400Y21145566D01*
X45745400Y21145566D02*
X45816828Y21216994D01*
X45816828Y21216994D02*
X45888257Y21359852D01*
X45888257Y21359852D02*
X45959685Y21645566D01*
X45959685Y21645566D02*
X46031114Y21788423D01*
X46031114Y21788423D02*
X46102542Y21859852D01*
X46102542Y21859852D02*
X46245400Y21931280D01*
X46245400Y21931280D02*
X46388257Y21931280D01*
X46388257Y21931280D02*
X46531114Y21859852D01*
X46531114Y21859852D02*
X46602542Y21788423D01*
X46602542Y21788423D02*
X46673971Y21645566D01*
X46673971Y21645566D02*
X46673971Y21288423D01*
X46673971Y21288423D02*
X46602542Y21074137D01*
X45173971Y19645566D02*
X45173971Y20502709D01*
X45173971Y20074138D02*
X46673971Y20074138D01*
X46673971Y20074138D02*
X46459685Y20216995D01*
X46459685Y20216995D02*
X46316828Y20359852D01*
X46316828Y20359852D02*
X46245400Y20502709D01*
X46173971Y18359852D02*
X45173971Y18359852D01*
X46745400Y18716995D02*
X45673971Y19074138D01*
X45673971Y19074138D02*
X45673971Y18145567D01*
X46673971Y16859853D02*
X46673971Y17574139D01*
X46673971Y17574139D02*
X45959685Y17645567D01*
X45959685Y17645567D02*
X46031114Y17574139D01*
X46031114Y17574139D02*
X46102542Y17431281D01*
X46102542Y17431281D02*
X46102542Y17074139D01*
X46102542Y17074139D02*
X46031114Y16931281D01*
X46031114Y16931281D02*
X45959685Y16859853D01*
X45959685Y16859853D02*
X45816828Y16788424D01*
X45816828Y16788424D02*
X45459685Y16788424D01*
X45459685Y16788424D02*
X45316828Y16859853D01*
X45316828Y16859853D02*
X45245400Y16931281D01*
X45245400Y16931281D02*
X45173971Y17074139D01*
X45173971Y17074139D02*
X45173971Y17431281D01*
X45173971Y17431281D02*
X45245400Y17574139D01*
X45245400Y17574139D02*
X45316828Y17645567D01*
D11*
X47740588Y3510181D02*
X47169160Y3510181D01*
X47454874Y3510181D02*
X47454874Y4510181D01*
X47454874Y4510181D02*
X47359636Y4367324D01*
X47359636Y4367324D02*
X47264398Y4272086D01*
X47264398Y4272086D02*
X47169160Y4224467D01*
X48359636Y4510181D02*
X48454874Y4510181D01*
X48454874Y4510181D02*
X48550112Y4462562D01*
X48550112Y4462562D02*
X48597731Y4414943D01*
X48597731Y4414943D02*
X48645350Y4319705D01*
X48645350Y4319705D02*
X48692969Y4129229D01*
X48692969Y4129229D02*
X48692969Y3891134D01*
X48692969Y3891134D02*
X48645350Y3700658D01*
X48645350Y3700658D02*
X48597731Y3605420D01*
X48597731Y3605420D02*
X48550112Y3557800D01*
X48550112Y3557800D02*
X48454874Y3510181D01*
X48454874Y3510181D02*
X48359636Y3510181D01*
X48359636Y3510181D02*
X48264398Y3557800D01*
X48264398Y3557800D02*
X48216779Y3605420D01*
X48216779Y3605420D02*
X48169160Y3700658D01*
X48169160Y3700658D02*
X48121541Y3891134D01*
X48121541Y3891134D02*
X48121541Y4129229D01*
X48121541Y4129229D02*
X48169160Y4319705D01*
X48169160Y4319705D02*
X48216779Y4414943D01*
X48216779Y4414943D02*
X48264398Y4462562D01*
X48264398Y4462562D02*
X48359636Y4510181D01*
X49121541Y3510181D02*
X49121541Y4510181D01*
X49216779Y3891134D02*
X49502493Y3510181D01*
X49502493Y4176848D02*
X49121541Y3795896D01*
D10*
X10779685Y79981280D02*
X10779685Y79481280D01*
X9993971Y79266994D02*
X9993971Y79981280D01*
X9993971Y79981280D02*
X11493971Y79981280D01*
X11493971Y79981280D02*
X11493971Y79266994D01*
X9993971Y78624137D02*
X11493971Y78624137D01*
X11493971Y78624137D02*
X11493971Y78052708D01*
X11493971Y78052708D02*
X11422542Y77909851D01*
X11422542Y77909851D02*
X11351114Y77838422D01*
X11351114Y77838422D02*
X11208257Y77766994D01*
X11208257Y77766994D02*
X10993971Y77766994D01*
X10993971Y77766994D02*
X10851114Y77838422D01*
X10851114Y77838422D02*
X10779685Y77909851D01*
X10779685Y77909851D02*
X10708257Y78052708D01*
X10708257Y78052708D02*
X10708257Y78624137D01*
X9993971Y76266994D02*
X10708257Y76766994D01*
X9993971Y77124137D02*
X11493971Y77124137D01*
X11493971Y77124137D02*
X11493971Y76552708D01*
X11493971Y76552708D02*
X11422542Y76409851D01*
X11422542Y76409851D02*
X11351114Y76338422D01*
X11351114Y76338422D02*
X11208257Y76266994D01*
X11208257Y76266994D02*
X10993971Y76266994D01*
X10993971Y76266994D02*
X10851114Y76338422D01*
X10851114Y76338422D02*
X10779685Y76409851D01*
X10779685Y76409851D02*
X10708257Y76552708D01*
X10708257Y76552708D02*
X10708257Y77124137D01*
X11493971Y75338422D02*
X11493971Y75052708D01*
X11493971Y75052708D02*
X11422542Y74909851D01*
X11422542Y74909851D02*
X11279685Y74766994D01*
X11279685Y74766994D02*
X10993971Y74695565D01*
X10993971Y74695565D02*
X10493971Y74695565D01*
X10493971Y74695565D02*
X10208257Y74766994D01*
X10208257Y74766994D02*
X10065400Y74909851D01*
X10065400Y74909851D02*
X9993971Y75052708D01*
X9993971Y75052708D02*
X9993971Y75338422D01*
X9993971Y75338422D02*
X10065400Y75481279D01*
X10065400Y75481279D02*
X10208257Y75624137D01*
X10208257Y75624137D02*
X10493971Y75695565D01*
X10493971Y75695565D02*
X10993971Y75695565D01*
X10993971Y75695565D02*
X11279685Y75624137D01*
X11279685Y75624137D02*
X11422542Y75481279D01*
X11422542Y75481279D02*
X11493971Y75338422D01*
X9993971Y74052708D02*
X11493971Y74052708D01*
X11493971Y74052708D02*
X10422542Y73552708D01*
X10422542Y73552708D02*
X11493971Y73052708D01*
X11493971Y73052708D02*
X9993971Y73052708D01*
X9422542Y70766993D02*
X9493971Y70838422D01*
X9493971Y70838422D02*
X9708257Y70981279D01*
X9708257Y70981279D02*
X9851114Y71052707D01*
X9851114Y71052707D02*
X10065400Y71124136D01*
X10065400Y71124136D02*
X10422542Y71195565D01*
X10422542Y71195565D02*
X10708257Y71195565D01*
X10708257Y71195565D02*
X11065400Y71124136D01*
X11065400Y71124136D02*
X11279685Y71052707D01*
X11279685Y71052707D02*
X11422542Y70981279D01*
X11422542Y70981279D02*
X11636828Y70838422D01*
X11636828Y70838422D02*
X11708257Y70766993D01*
X11351114Y70266993D02*
X11422542Y70195565D01*
X11422542Y70195565D02*
X11493971Y70052707D01*
X11493971Y70052707D02*
X11493971Y69695565D01*
X11493971Y69695565D02*
X11422542Y69552707D01*
X11422542Y69552707D02*
X11351114Y69481279D01*
X11351114Y69481279D02*
X11208257Y69409850D01*
X11208257Y69409850D02*
X11065400Y69409850D01*
X11065400Y69409850D02*
X10851114Y69481279D01*
X10851114Y69481279D02*
X9993971Y70338422D01*
X9993971Y70338422D02*
X9993971Y69409850D01*
X11493971Y68052708D02*
X11493971Y68766994D01*
X11493971Y68766994D02*
X10779685Y68838422D01*
X10779685Y68838422D02*
X10851114Y68766994D01*
X10851114Y68766994D02*
X10922542Y68624136D01*
X10922542Y68624136D02*
X10922542Y68266994D01*
X10922542Y68266994D02*
X10851114Y68124136D01*
X10851114Y68124136D02*
X10779685Y68052708D01*
X10779685Y68052708D02*
X10636828Y67981279D01*
X10636828Y67981279D02*
X10279685Y67981279D01*
X10279685Y67981279D02*
X10136828Y68052708D01*
X10136828Y68052708D02*
X10065400Y68124136D01*
X10065400Y68124136D02*
X9993971Y68266994D01*
X9993971Y68266994D02*
X9993971Y68624136D01*
X9993971Y68624136D02*
X10065400Y68766994D01*
X10065400Y68766994D02*
X10136828Y68838422D01*
X11493971Y66695565D02*
X11493971Y66981280D01*
X11493971Y66981280D02*
X11422542Y67124137D01*
X11422542Y67124137D02*
X11351114Y67195565D01*
X11351114Y67195565D02*
X11136828Y67338423D01*
X11136828Y67338423D02*
X10851114Y67409851D01*
X10851114Y67409851D02*
X10279685Y67409851D01*
X10279685Y67409851D02*
X10136828Y67338423D01*
X10136828Y67338423D02*
X10065400Y67266994D01*
X10065400Y67266994D02*
X9993971Y67124137D01*
X9993971Y67124137D02*
X9993971Y66838423D01*
X9993971Y66838423D02*
X10065400Y66695565D01*
X10065400Y66695565D02*
X10136828Y66624137D01*
X10136828Y66624137D02*
X10279685Y66552708D01*
X10279685Y66552708D02*
X10636828Y66552708D01*
X10636828Y66552708D02*
X10779685Y66624137D01*
X10779685Y66624137D02*
X10851114Y66695565D01*
X10851114Y66695565D02*
X10922542Y66838423D01*
X10922542Y66838423D02*
X10922542Y67124137D01*
X10922542Y67124137D02*
X10851114Y67266994D01*
X10851114Y67266994D02*
X10779685Y67338423D01*
X10779685Y67338423D02*
X10636828Y67409851D01*
X9993971Y65909852D02*
X11493971Y65909852D01*
X10922542Y65909852D02*
X10993971Y65766994D01*
X10993971Y65766994D02*
X10993971Y65481280D01*
X10993971Y65481280D02*
X10922542Y65338423D01*
X10922542Y65338423D02*
X10851114Y65266994D01*
X10851114Y65266994D02*
X10708257Y65195566D01*
X10708257Y65195566D02*
X10279685Y65195566D01*
X10279685Y65195566D02*
X10136828Y65266994D01*
X10136828Y65266994D02*
X10065400Y65338423D01*
X10065400Y65338423D02*
X9993971Y65481280D01*
X9993971Y65481280D02*
X9993971Y65766994D01*
X9993971Y65766994D02*
X10065400Y65909852D01*
X9993971Y64552709D02*
X10993971Y64552709D01*
X11493971Y64552709D02*
X11422542Y64624137D01*
X11422542Y64624137D02*
X11351114Y64552709D01*
X11351114Y64552709D02*
X11422542Y64481280D01*
X11422542Y64481280D02*
X11493971Y64552709D01*
X11493971Y64552709D02*
X11351114Y64552709D01*
X10993971Y64052708D02*
X10993971Y63481280D01*
X11493971Y63838423D02*
X10208257Y63838423D01*
X10208257Y63838423D02*
X10065400Y63766994D01*
X10065400Y63766994D02*
X9993971Y63624137D01*
X9993971Y63624137D02*
X9993971Y63481280D01*
X9422542Y63124137D02*
X9493971Y63052708D01*
X9493971Y63052708D02*
X9708257Y62909851D01*
X9708257Y62909851D02*
X9851114Y62838422D01*
X9851114Y62838422D02*
X10065400Y62766994D01*
X10065400Y62766994D02*
X10422542Y62695565D01*
X10422542Y62695565D02*
X10708257Y62695565D01*
X10708257Y62695565D02*
X11065400Y62766994D01*
X11065400Y62766994D02*
X11279685Y62838422D01*
X11279685Y62838422D02*
X11422542Y62909851D01*
X11422542Y62909851D02*
X11636828Y63052708D01*
X11636828Y63052708D02*
X11708257Y63124137D01*
X87102780Y50260327D02*
X88102780Y50260327D01*
X88150400Y49069852D02*
X86864685Y49926994D01*
X88102780Y48546042D02*
X88102780Y48355566D01*
X88102780Y48355566D02*
X88055161Y48260328D01*
X88055161Y48260328D02*
X87959923Y48165090D01*
X87959923Y48165090D02*
X87769447Y48117471D01*
X87769447Y48117471D02*
X87436114Y48117471D01*
X87436114Y48117471D02*
X87245638Y48165090D01*
X87245638Y48165090D02*
X87150400Y48260328D01*
X87150400Y48260328D02*
X87102780Y48355566D01*
X87102780Y48355566D02*
X87102780Y48546042D01*
X87102780Y48546042D02*
X87150400Y48641280D01*
X87150400Y48641280D02*
X87245638Y48736518D01*
X87245638Y48736518D02*
X87436114Y48784137D01*
X87436114Y48784137D02*
X87769447Y48784137D01*
X87769447Y48784137D02*
X87959923Y48736518D01*
X87959923Y48736518D02*
X88055161Y48641280D01*
X88055161Y48641280D02*
X88102780Y48546042D01*
X87483733Y47688899D02*
X87483733Y46926994D01*
X87626590Y46117471D02*
X87578971Y45974614D01*
X87578971Y45974614D02*
X87531352Y45926995D01*
X87531352Y45926995D02*
X87436114Y45879376D01*
X87436114Y45879376D02*
X87293257Y45879376D01*
X87293257Y45879376D02*
X87198019Y45926995D01*
X87198019Y45926995D02*
X87150400Y45974614D01*
X87150400Y45974614D02*
X87102780Y46069852D01*
X87102780Y46069852D02*
X87102780Y46450804D01*
X87102780Y46450804D02*
X88102780Y46450804D01*
X88102780Y46450804D02*
X88102780Y46117471D01*
X88102780Y46117471D02*
X88055161Y46022233D01*
X88055161Y46022233D02*
X88007542Y45974614D01*
X88007542Y45974614D02*
X87912304Y45926995D01*
X87912304Y45926995D02*
X87817066Y45926995D01*
X87817066Y45926995D02*
X87721828Y45974614D01*
X87721828Y45974614D02*
X87674209Y46022233D01*
X87674209Y46022233D02*
X87626590Y46117471D01*
X87626590Y46117471D02*
X87626590Y46450804D01*
X25463971Y37264137D02*
X23963971Y36906994D01*
X23963971Y36906994D02*
X25035400Y36621280D01*
X25035400Y36621280D02*
X23963971Y36335565D01*
X23963971Y36335565D02*
X25463971Y35978422D01*
X25463971Y34764136D02*
X25463971Y35049851D01*
X25463971Y35049851D02*
X25392542Y35192708D01*
X25392542Y35192708D02*
X25321114Y35264136D01*
X25321114Y35264136D02*
X25106828Y35406994D01*
X25106828Y35406994D02*
X24821114Y35478422D01*
X24821114Y35478422D02*
X24249685Y35478422D01*
X24249685Y35478422D02*
X24106828Y35406994D01*
X24106828Y35406994D02*
X24035400Y35335565D01*
X24035400Y35335565D02*
X23963971Y35192708D01*
X23963971Y35192708D02*
X23963971Y34906994D01*
X23963971Y34906994D02*
X24035400Y34764136D01*
X24035400Y34764136D02*
X24106828Y34692708D01*
X24106828Y34692708D02*
X24249685Y34621279D01*
X24249685Y34621279D02*
X24606828Y34621279D01*
X24606828Y34621279D02*
X24749685Y34692708D01*
X24749685Y34692708D02*
X24821114Y34764136D01*
X24821114Y34764136D02*
X24892542Y34906994D01*
X24892542Y34906994D02*
X24892542Y35192708D01*
X24892542Y35192708D02*
X24821114Y35335565D01*
X24821114Y35335565D02*
X24749685Y35406994D01*
X24749685Y35406994D02*
X24606828Y35478422D01*
X25463971Y33264137D02*
X25463971Y33978423D01*
X25463971Y33978423D02*
X24749685Y34049851D01*
X24749685Y34049851D02*
X24821114Y33978423D01*
X24821114Y33978423D02*
X24892542Y33835565D01*
X24892542Y33835565D02*
X24892542Y33478423D01*
X24892542Y33478423D02*
X24821114Y33335565D01*
X24821114Y33335565D02*
X24749685Y33264137D01*
X24749685Y33264137D02*
X24606828Y33192708D01*
X24606828Y33192708D02*
X24249685Y33192708D01*
X24249685Y33192708D02*
X24106828Y33264137D01*
X24106828Y33264137D02*
X24035400Y33335565D01*
X24035400Y33335565D02*
X23963971Y33478423D01*
X23963971Y33478423D02*
X23963971Y33835565D01*
X23963971Y33835565D02*
X24035400Y33978423D01*
X24035400Y33978423D02*
X24106828Y34049851D01*
X24106828Y31692709D02*
X24035400Y31764137D01*
X24035400Y31764137D02*
X23963971Y31978423D01*
X23963971Y31978423D02*
X23963971Y32121280D01*
X23963971Y32121280D02*
X24035400Y32335566D01*
X24035400Y32335566D02*
X24178257Y32478423D01*
X24178257Y32478423D02*
X24321114Y32549852D01*
X24321114Y32549852D02*
X24606828Y32621280D01*
X24606828Y32621280D02*
X24821114Y32621280D01*
X24821114Y32621280D02*
X25106828Y32549852D01*
X25106828Y32549852D02*
X25249685Y32478423D01*
X25249685Y32478423D02*
X25392542Y32335566D01*
X25392542Y32335566D02*
X25463971Y32121280D01*
X25463971Y32121280D02*
X25463971Y31978423D01*
X25463971Y31978423D02*
X25392542Y31764137D01*
X25392542Y31764137D02*
X25321114Y31692709D01*
X25463971Y30335566D02*
X25463971Y31049852D01*
X25463971Y31049852D02*
X24749685Y31121280D01*
X24749685Y31121280D02*
X24821114Y31049852D01*
X24821114Y31049852D02*
X24892542Y30906994D01*
X24892542Y30906994D02*
X24892542Y30549852D01*
X24892542Y30549852D02*
X24821114Y30406994D01*
X24821114Y30406994D02*
X24749685Y30335566D01*
X24749685Y30335566D02*
X24606828Y30264137D01*
X24606828Y30264137D02*
X24249685Y30264137D01*
X24249685Y30264137D02*
X24106828Y30335566D01*
X24106828Y30335566D02*
X24035400Y30406994D01*
X24035400Y30406994D02*
X23963971Y30549852D01*
X23963971Y30549852D02*
X23963971Y30906994D01*
X23963971Y30906994D02*
X24035400Y31049852D01*
X24035400Y31049852D02*
X24106828Y31121280D01*
X23963971Y28835566D02*
X23963971Y29692709D01*
X23963971Y29264138D02*
X25463971Y29264138D01*
X25463971Y29264138D02*
X25249685Y29406995D01*
X25249685Y29406995D02*
X25106828Y29549852D01*
X25106828Y29549852D02*
X25035400Y29692709D01*
X23392542Y26621281D02*
X23463971Y26692710D01*
X23463971Y26692710D02*
X23678257Y26835567D01*
X23678257Y26835567D02*
X23821114Y26906995D01*
X23821114Y26906995D02*
X24035400Y26978424D01*
X24035400Y26978424D02*
X24392542Y27049853D01*
X24392542Y27049853D02*
X24678257Y27049853D01*
X24678257Y27049853D02*
X25035400Y26978424D01*
X25035400Y26978424D02*
X25249685Y26906995D01*
X25249685Y26906995D02*
X25392542Y26835567D01*
X25392542Y26835567D02*
X25606828Y26692710D01*
X25606828Y26692710D02*
X25678257Y26621281D01*
X24392542Y26121281D02*
X24392542Y25406995D01*
X23963971Y26264138D02*
X25463971Y25764138D01*
X25463971Y25764138D02*
X23963971Y25264138D01*
X24106828Y23906996D02*
X24035400Y23978424D01*
X24035400Y23978424D02*
X23963971Y24192710D01*
X23963971Y24192710D02*
X23963971Y24335567D01*
X23963971Y24335567D02*
X24035400Y24549853D01*
X24035400Y24549853D02*
X24178257Y24692710D01*
X24178257Y24692710D02*
X24321114Y24764139D01*
X24321114Y24764139D02*
X24606828Y24835567D01*
X24606828Y24835567D02*
X24821114Y24835567D01*
X24821114Y24835567D02*
X25106828Y24764139D01*
X25106828Y24764139D02*
X25249685Y24692710D01*
X25249685Y24692710D02*
X25392542Y24549853D01*
X25392542Y24549853D02*
X25463971Y24335567D01*
X25463971Y24335567D02*
X25463971Y24192710D01*
X25463971Y24192710D02*
X25392542Y23978424D01*
X25392542Y23978424D02*
X25321114Y23906996D01*
X23963971Y23264139D02*
X25463971Y23264139D01*
X24392542Y22621281D02*
X24392542Y21906995D01*
X23963971Y22764138D02*
X25463971Y22264138D01*
X25463971Y22264138D02*
X23963971Y21764138D01*
X23392542Y21406996D02*
X23463971Y21335567D01*
X23463971Y21335567D02*
X23678257Y21192710D01*
X23678257Y21192710D02*
X23821114Y21121281D01*
X23821114Y21121281D02*
X24035400Y21049853D01*
X24035400Y21049853D02*
X24392542Y20978424D01*
X24392542Y20978424D02*
X24678257Y20978424D01*
X24678257Y20978424D02*
X25035400Y21049853D01*
X25035400Y21049853D02*
X25249685Y21121281D01*
X25249685Y21121281D02*
X25392542Y21192710D01*
X25392542Y21192710D02*
X25606828Y21335567D01*
X25606828Y21335567D02*
X25678257Y21406996D01*
X58453971Y26874137D02*
X58453971Y25874137D01*
X58453971Y25874137D02*
X56953971Y26516994D01*
X57953971Y24659851D02*
X56953971Y24659851D01*
X58525400Y25016994D02*
X57453971Y25374137D01*
X57453971Y25374137D02*
X57453971Y24445566D01*
X56953971Y23159852D02*
X56953971Y23874138D01*
X56953971Y23874138D02*
X58453971Y23874138D01*
X57025400Y22731280D02*
X56953971Y22516994D01*
X56953971Y22516994D02*
X56953971Y22159852D01*
X56953971Y22159852D02*
X57025400Y22016994D01*
X57025400Y22016994D02*
X57096828Y21945566D01*
X57096828Y21945566D02*
X57239685Y21874137D01*
X57239685Y21874137D02*
X57382542Y21874137D01*
X57382542Y21874137D02*
X57525400Y21945566D01*
X57525400Y21945566D02*
X57596828Y22016994D01*
X57596828Y22016994D02*
X57668257Y22159852D01*
X57668257Y22159852D02*
X57739685Y22445566D01*
X57739685Y22445566D02*
X57811114Y22588423D01*
X57811114Y22588423D02*
X57882542Y22659852D01*
X57882542Y22659852D02*
X58025400Y22731280D01*
X58025400Y22731280D02*
X58168257Y22731280D01*
X58168257Y22731280D02*
X58311114Y22659852D01*
X58311114Y22659852D02*
X58382542Y22588423D01*
X58382542Y22588423D02*
X58453971Y22445566D01*
X58453971Y22445566D02*
X58453971Y22088423D01*
X58453971Y22088423D02*
X58382542Y21874137D01*
X58453971Y20945566D02*
X58453971Y20802709D01*
X58453971Y20802709D02*
X58382542Y20659852D01*
X58382542Y20659852D02*
X58311114Y20588423D01*
X58311114Y20588423D02*
X58168257Y20516995D01*
X58168257Y20516995D02*
X57882542Y20445566D01*
X57882542Y20445566D02*
X57525400Y20445566D01*
X57525400Y20445566D02*
X57239685Y20516995D01*
X57239685Y20516995D02*
X57096828Y20588423D01*
X57096828Y20588423D02*
X57025400Y20659852D01*
X57025400Y20659852D02*
X56953971Y20802709D01*
X56953971Y20802709D02*
X56953971Y20945566D01*
X56953971Y20945566D02*
X57025400Y21088423D01*
X57025400Y21088423D02*
X57096828Y21159852D01*
X57096828Y21159852D02*
X57239685Y21231281D01*
X57239685Y21231281D02*
X57525400Y21302709D01*
X57525400Y21302709D02*
X57882542Y21302709D01*
X57882542Y21302709D02*
X58168257Y21231281D01*
X58168257Y21231281D02*
X58311114Y21159852D01*
X58311114Y21159852D02*
X58382542Y21088423D01*
X58382542Y21088423D02*
X58453971Y20945566D01*
X58453971Y19516995D02*
X58453971Y19374138D01*
X58453971Y19374138D02*
X58382542Y19231281D01*
X58382542Y19231281D02*
X58311114Y19159852D01*
X58311114Y19159852D02*
X58168257Y19088424D01*
X58168257Y19088424D02*
X57882542Y19016995D01*
X57882542Y19016995D02*
X57525400Y19016995D01*
X57525400Y19016995D02*
X57239685Y19088424D01*
X57239685Y19088424D02*
X57096828Y19159852D01*
X57096828Y19159852D02*
X57025400Y19231281D01*
X57025400Y19231281D02*
X56953971Y19374138D01*
X56953971Y19374138D02*
X56953971Y19516995D01*
X56953971Y19516995D02*
X57025400Y19659852D01*
X57025400Y19659852D02*
X57096828Y19731281D01*
X57096828Y19731281D02*
X57239685Y19802710D01*
X57239685Y19802710D02*
X57525400Y19874138D01*
X57525400Y19874138D02*
X57882542Y19874138D01*
X57882542Y19874138D02*
X58168257Y19802710D01*
X58168257Y19802710D02*
X58311114Y19731281D01*
X58311114Y19731281D02*
X58382542Y19659852D01*
X58382542Y19659852D02*
X58453971Y19516995D01*
D11*
X71730588Y28600181D02*
X71159160Y28600181D01*
X71444874Y28600181D02*
X71444874Y29600181D01*
X71444874Y29600181D02*
X71349636Y29457324D01*
X71349636Y29457324D02*
X71254398Y29362086D01*
X71254398Y29362086D02*
X71159160Y29314467D01*
X72349636Y29600181D02*
X72444874Y29600181D01*
X72444874Y29600181D02*
X72540112Y29552562D01*
X72540112Y29552562D02*
X72587731Y29504943D01*
X72587731Y29504943D02*
X72635350Y29409705D01*
X72635350Y29409705D02*
X72682969Y29219229D01*
X72682969Y29219229D02*
X72682969Y28981134D01*
X72682969Y28981134D02*
X72635350Y28790658D01*
X72635350Y28790658D02*
X72587731Y28695420D01*
X72587731Y28695420D02*
X72540112Y28647800D01*
X72540112Y28647800D02*
X72444874Y28600181D01*
X72444874Y28600181D02*
X72349636Y28600181D01*
X72349636Y28600181D02*
X72254398Y28647800D01*
X72254398Y28647800D02*
X72206779Y28695420D01*
X72206779Y28695420D02*
X72159160Y28790658D01*
X72159160Y28790658D02*
X72111541Y28981134D01*
X72111541Y28981134D02*
X72111541Y29219229D01*
X72111541Y29219229D02*
X72159160Y29409705D01*
X72159160Y29409705D02*
X72206779Y29504943D01*
X72206779Y29504943D02*
X72254398Y29552562D01*
X72254398Y29552562D02*
X72349636Y29600181D01*
X73540112Y29266848D02*
X73540112Y28600181D01*
X73111541Y29266848D02*
X73111541Y28743039D01*
X73111541Y28743039D02*
X73159160Y28647800D01*
X73159160Y28647800D02*
X73254398Y28600181D01*
X73254398Y28600181D02*
X73397255Y28600181D01*
X73397255Y28600181D02*
X73492493Y28647800D01*
X73492493Y28647800D02*
X73540112Y28695420D01*
X74349636Y29123991D02*
X74016303Y29123991D01*
X74016303Y28600181D02*
X74016303Y29600181D01*
X74016303Y29600181D02*
X74492493Y29600181D01*
X10118095Y90315181D02*
X10118095Y89505658D01*
X10118095Y89505658D02*
X10165714Y89410420D01*
X10165714Y89410420D02*
X10213333Y89362800D01*
X10213333Y89362800D02*
X10308571Y89315181D01*
X10308571Y89315181D02*
X10499047Y89315181D01*
X10499047Y89315181D02*
X10594285Y89362800D01*
X10594285Y89362800D02*
X10641904Y89410420D01*
X10641904Y89410420D02*
X10689523Y89505658D01*
X10689523Y89505658D02*
X10689523Y90315181D01*
X11070476Y90315181D02*
X11737142Y90315181D01*
X11737142Y90315181D02*
X11308571Y89315181D01*
X67738095Y90795181D02*
X67738095Y89985658D01*
X67738095Y89985658D02*
X67785714Y89890420D01*
X67785714Y89890420D02*
X67833333Y89842800D01*
X67833333Y89842800D02*
X67928571Y89795181D01*
X67928571Y89795181D02*
X68119047Y89795181D01*
X68119047Y89795181D02*
X68214285Y89842800D01*
X68214285Y89842800D02*
X68261904Y89890420D01*
X68261904Y89890420D02*
X68309523Y89985658D01*
X68309523Y89985658D02*
X68309523Y90795181D01*
X69261904Y90795181D02*
X68785714Y90795181D01*
X68785714Y90795181D02*
X68738095Y90318991D01*
X68738095Y90318991D02*
X68785714Y90366610D01*
X68785714Y90366610D02*
X68880952Y90414229D01*
X68880952Y90414229D02*
X69119047Y90414229D01*
X69119047Y90414229D02*
X69214285Y90366610D01*
X69214285Y90366610D02*
X69261904Y90318991D01*
X69261904Y90318991D02*
X69309523Y90223753D01*
X69309523Y90223753D02*
X69309523Y89985658D01*
X69309523Y89985658D02*
X69261904Y89890420D01*
X69261904Y89890420D02*
X69214285Y89842800D01*
X69214285Y89842800D02*
X69119047Y89795181D01*
X69119047Y89795181D02*
X68880952Y89795181D01*
X68880952Y89795181D02*
X68785714Y89842800D01*
X68785714Y89842800D02*
X68738095Y89890420D01*
X36583333Y92190420D02*
X36535714Y92142800D01*
X36535714Y92142800D02*
X36392857Y92095181D01*
X36392857Y92095181D02*
X36297619Y92095181D01*
X36297619Y92095181D02*
X36154762Y92142800D01*
X36154762Y92142800D02*
X36059524Y92238039D01*
X36059524Y92238039D02*
X36011905Y92333277D01*
X36011905Y92333277D02*
X35964286Y92523753D01*
X35964286Y92523753D02*
X35964286Y92666610D01*
X35964286Y92666610D02*
X36011905Y92857086D01*
X36011905Y92857086D02*
X36059524Y92952324D01*
X36059524Y92952324D02*
X36154762Y93047562D01*
X36154762Y93047562D02*
X36297619Y93095181D01*
X36297619Y93095181D02*
X36392857Y93095181D01*
X36392857Y93095181D02*
X36535714Y93047562D01*
X36535714Y93047562D02*
X36583333Y92999943D01*
X37440476Y93095181D02*
X37250000Y93095181D01*
X37250000Y93095181D02*
X37154762Y93047562D01*
X37154762Y93047562D02*
X37107143Y92999943D01*
X37107143Y92999943D02*
X37011905Y92857086D01*
X37011905Y92857086D02*
X36964286Y92666610D01*
X36964286Y92666610D02*
X36964286Y92285658D01*
X36964286Y92285658D02*
X37011905Y92190420D01*
X37011905Y92190420D02*
X37059524Y92142800D01*
X37059524Y92142800D02*
X37154762Y92095181D01*
X37154762Y92095181D02*
X37345238Y92095181D01*
X37345238Y92095181D02*
X37440476Y92142800D01*
X37440476Y92142800D02*
X37488095Y92190420D01*
X37488095Y92190420D02*
X37535714Y92285658D01*
X37535714Y92285658D02*
X37535714Y92523753D01*
X37535714Y92523753D02*
X37488095Y92618991D01*
X37488095Y92618991D02*
X37440476Y92666610D01*
X37440476Y92666610D02*
X37345238Y92714229D01*
X37345238Y92714229D02*
X37154762Y92714229D01*
X37154762Y92714229D02*
X37059524Y92666610D01*
X37059524Y92666610D02*
X37011905Y92618991D01*
X37011905Y92618991D02*
X36964286Y92523753D01*
X76011905Y23545181D02*
X76011905Y24545181D01*
X76011905Y24545181D02*
X76250000Y24545181D01*
X76250000Y24545181D02*
X76392857Y24497562D01*
X76392857Y24497562D02*
X76488095Y24402324D01*
X76488095Y24402324D02*
X76535714Y24307086D01*
X76535714Y24307086D02*
X76583333Y24116610D01*
X76583333Y24116610D02*
X76583333Y23973753D01*
X76583333Y23973753D02*
X76535714Y23783277D01*
X76535714Y23783277D02*
X76488095Y23688039D01*
X76488095Y23688039D02*
X76392857Y23592800D01*
X76392857Y23592800D02*
X76250000Y23545181D01*
X76250000Y23545181D02*
X76011905Y23545181D01*
X77535714Y23545181D02*
X76964286Y23545181D01*
X77250000Y23545181D02*
X77250000Y24545181D01*
X77250000Y24545181D02*
X77154762Y24402324D01*
X77154762Y24402324D02*
X77059524Y24307086D01*
X77059524Y24307086D02*
X76964286Y24259467D01*
X71058095Y25295181D02*
X71058095Y26295181D01*
X71629523Y25295181D02*
X71200952Y25866610D01*
X71629523Y26295181D02*
X71058095Y25723753D01*
X84357093Y25140420D02*
X84309474Y25092800D01*
X84309474Y25092800D02*
X84166617Y25045181D01*
X84166617Y25045181D02*
X84071379Y25045181D01*
X84071379Y25045181D02*
X83928522Y25092800D01*
X83928522Y25092800D02*
X83833284Y25188039D01*
X83833284Y25188039D02*
X83785665Y25283277D01*
X83785665Y25283277D02*
X83738046Y25473753D01*
X83738046Y25473753D02*
X83738046Y25616610D01*
X83738046Y25616610D02*
X83785665Y25807086D01*
X83785665Y25807086D02*
X83833284Y25902324D01*
X83833284Y25902324D02*
X83928522Y25997562D01*
X83928522Y25997562D02*
X84071379Y26045181D01*
X84071379Y26045181D02*
X84166617Y26045181D01*
X84166617Y26045181D02*
X84309474Y25997562D01*
X84309474Y25997562D02*
X84357093Y25949943D01*
X85309474Y25045181D02*
X84738046Y25045181D01*
X85023760Y25045181D02*
X85023760Y26045181D01*
X85023760Y26045181D02*
X84928522Y25902324D01*
X84928522Y25902324D02*
X84833284Y25807086D01*
X84833284Y25807086D02*
X84738046Y25759467D01*
X85928522Y26045181D02*
X86023760Y26045181D01*
X86023760Y26045181D02*
X86118998Y25997562D01*
X86118998Y25997562D02*
X86166617Y25949943D01*
X86166617Y25949943D02*
X86214236Y25854705D01*
X86214236Y25854705D02*
X86261855Y25664229D01*
X86261855Y25664229D02*
X86261855Y25426134D01*
X86261855Y25426134D02*
X86214236Y25235658D01*
X86214236Y25235658D02*
X86166617Y25140420D01*
X86166617Y25140420D02*
X86118998Y25092800D01*
X86118998Y25092800D02*
X86023760Y25045181D01*
X86023760Y25045181D02*
X85928522Y25045181D01*
X85928522Y25045181D02*
X85833284Y25092800D01*
X85833284Y25092800D02*
X85785665Y25140420D01*
X85785665Y25140420D02*
X85738046Y25235658D01*
X85738046Y25235658D02*
X85690427Y25426134D01*
X85690427Y25426134D02*
X85690427Y25664229D01*
X85690427Y25664229D02*
X85738046Y25854705D01*
X85738046Y25854705D02*
X85785665Y25949943D01*
X85785665Y25949943D02*
X85833284Y25997562D01*
X85833284Y25997562D02*
X85928522Y26045181D01*
X40988095Y33545181D02*
X40988095Y32735658D01*
X40988095Y32735658D02*
X41035714Y32640420D01*
X41035714Y32640420D02*
X41083333Y32592800D01*
X41083333Y32592800D02*
X41178571Y32545181D01*
X41178571Y32545181D02*
X41369047Y32545181D01*
X41369047Y32545181D02*
X41464285Y32592800D01*
X41464285Y32592800D02*
X41511904Y32640420D01*
X41511904Y32640420D02*
X41559523Y32735658D01*
X41559523Y32735658D02*
X41559523Y33545181D01*
X42464285Y33211848D02*
X42464285Y32545181D01*
X42226190Y33592800D02*
X41988095Y32878515D01*
X41988095Y32878515D02*
X42607142Y32878515D01*
X93416666Y60005181D02*
X93416666Y59290896D01*
X93416666Y59290896D02*
X93369047Y59148039D01*
X93369047Y59148039D02*
X93273809Y59052800D01*
X93273809Y59052800D02*
X93130952Y59005181D01*
X93130952Y59005181D02*
X93035714Y59005181D01*
X94321428Y59671848D02*
X94321428Y59005181D01*
X94083333Y60052800D02*
X93845238Y59338515D01*
X93845238Y59338515D02*
X94464285Y59338515D01*
X48583333Y34940420D02*
X48535714Y34892800D01*
X48535714Y34892800D02*
X48392857Y34845181D01*
X48392857Y34845181D02*
X48297619Y34845181D01*
X48297619Y34845181D02*
X48154762Y34892800D01*
X48154762Y34892800D02*
X48059524Y34988039D01*
X48059524Y34988039D02*
X48011905Y35083277D01*
X48011905Y35083277D02*
X47964286Y35273753D01*
X47964286Y35273753D02*
X47964286Y35416610D01*
X47964286Y35416610D02*
X48011905Y35607086D01*
X48011905Y35607086D02*
X48059524Y35702324D01*
X48059524Y35702324D02*
X48154762Y35797562D01*
X48154762Y35797562D02*
X48297619Y35845181D01*
X48297619Y35845181D02*
X48392857Y35845181D01*
X48392857Y35845181D02*
X48535714Y35797562D01*
X48535714Y35797562D02*
X48583333Y35749943D01*
X49440476Y35511848D02*
X49440476Y34845181D01*
X49202381Y35892800D02*
X48964286Y35178515D01*
X48964286Y35178515D02*
X49583333Y35178515D01*
X29418095Y90335181D02*
X29418095Y89525658D01*
X29418095Y89525658D02*
X29465714Y89430420D01*
X29465714Y89430420D02*
X29513333Y89382800D01*
X29513333Y89382800D02*
X29608571Y89335181D01*
X29608571Y89335181D02*
X29799047Y89335181D01*
X29799047Y89335181D02*
X29894285Y89382800D01*
X29894285Y89382800D02*
X29941904Y89430420D01*
X29941904Y89430420D02*
X29989523Y89525658D01*
X29989523Y89525658D02*
X29989523Y90335181D01*
X30894285Y90335181D02*
X30703809Y90335181D01*
X30703809Y90335181D02*
X30608571Y90287562D01*
X30608571Y90287562D02*
X30560952Y90239943D01*
X30560952Y90239943D02*
X30465714Y90097086D01*
X30465714Y90097086D02*
X30418095Y89906610D01*
X30418095Y89906610D02*
X30418095Y89525658D01*
X30418095Y89525658D02*
X30465714Y89430420D01*
X30465714Y89430420D02*
X30513333Y89382800D01*
X30513333Y89382800D02*
X30608571Y89335181D01*
X30608571Y89335181D02*
X30799047Y89335181D01*
X30799047Y89335181D02*
X30894285Y89382800D01*
X30894285Y89382800D02*
X30941904Y89430420D01*
X30941904Y89430420D02*
X30989523Y89525658D01*
X30989523Y89525658D02*
X30989523Y89763753D01*
X30989523Y89763753D02*
X30941904Y89858991D01*
X30941904Y89858991D02*
X30894285Y89906610D01*
X30894285Y89906610D02*
X30799047Y89954229D01*
X30799047Y89954229D02*
X30608571Y89954229D01*
X30608571Y89954229D02*
X30513333Y89906610D01*
X30513333Y89906610D02*
X30465714Y89858991D01*
X30465714Y89858991D02*
X30418095Y89763753D01*
X1596666Y10065181D02*
X1596666Y9350896D01*
X1596666Y9350896D02*
X1549047Y9208039D01*
X1549047Y9208039D02*
X1453809Y9112800D01*
X1453809Y9112800D02*
X1310952Y9065181D01*
X1310952Y9065181D02*
X1215714Y9065181D01*
X2596666Y9065181D02*
X2025238Y9065181D01*
X2310952Y9065181D02*
X2310952Y10065181D01*
X2310952Y10065181D02*
X2215714Y9922324D01*
X2215714Y9922324D02*
X2120476Y9827086D01*
X2120476Y9827086D02*
X2025238Y9779467D01*
X72204819Y8583334D02*
X71728628Y8250001D01*
X72204819Y8011906D02*
X71204819Y8011906D01*
X71204819Y8011906D02*
X71204819Y8392858D01*
X71204819Y8392858D02*
X71252438Y8488096D01*
X71252438Y8488096D02*
X71300057Y8535715D01*
X71300057Y8535715D02*
X71395295Y8583334D01*
X71395295Y8583334D02*
X71538152Y8583334D01*
X71538152Y8583334D02*
X71633390Y8535715D01*
X71633390Y8535715D02*
X71681009Y8488096D01*
X71681009Y8488096D02*
X71728628Y8392858D01*
X71728628Y8392858D02*
X71728628Y8011906D01*
X71204819Y8916668D02*
X71204819Y9535715D01*
X71204819Y9535715D02*
X71585771Y9202382D01*
X71585771Y9202382D02*
X71585771Y9345239D01*
X71585771Y9345239D02*
X71633390Y9440477D01*
X71633390Y9440477D02*
X71681009Y9488096D01*
X71681009Y9488096D02*
X71776247Y9535715D01*
X71776247Y9535715D02*
X72014342Y9535715D01*
X72014342Y9535715D02*
X72109580Y9488096D01*
X72109580Y9488096D02*
X72157200Y9440477D01*
X72157200Y9440477D02*
X72204819Y9345239D01*
X72204819Y9345239D02*
X72204819Y9059525D01*
X72204819Y9059525D02*
X72157200Y8964287D01*
X72157200Y8964287D02*
X72109580Y8916668D01*
X43109580Y61083334D02*
X43157200Y61035715D01*
X43157200Y61035715D02*
X43204819Y60892858D01*
X43204819Y60892858D02*
X43204819Y60797620D01*
X43204819Y60797620D02*
X43157200Y60654763D01*
X43157200Y60654763D02*
X43061961Y60559525D01*
X43061961Y60559525D02*
X42966723Y60511906D01*
X42966723Y60511906D02*
X42776247Y60464287D01*
X42776247Y60464287D02*
X42633390Y60464287D01*
X42633390Y60464287D02*
X42442914Y60511906D01*
X42442914Y60511906D02*
X42347676Y60559525D01*
X42347676Y60559525D02*
X42252438Y60654763D01*
X42252438Y60654763D02*
X42204819Y60797620D01*
X42204819Y60797620D02*
X42204819Y60892858D01*
X42204819Y60892858D02*
X42252438Y61035715D01*
X42252438Y61035715D02*
X42300057Y61083334D01*
X42300057Y61464287D02*
X42252438Y61511906D01*
X42252438Y61511906D02*
X42204819Y61607144D01*
X42204819Y61607144D02*
X42204819Y61845239D01*
X42204819Y61845239D02*
X42252438Y61940477D01*
X42252438Y61940477D02*
X42300057Y61988096D01*
X42300057Y61988096D02*
X42395295Y62035715D01*
X42395295Y62035715D02*
X42490533Y62035715D01*
X42490533Y62035715D02*
X42633390Y61988096D01*
X42633390Y61988096D02*
X43204819Y61416668D01*
X43204819Y61416668D02*
X43204819Y62035715D01*
X76583333Y19545181D02*
X76250000Y20021372D01*
X76011905Y19545181D02*
X76011905Y20545181D01*
X76011905Y20545181D02*
X76392857Y20545181D01*
X76392857Y20545181D02*
X76488095Y20497562D01*
X76488095Y20497562D02*
X76535714Y20449943D01*
X76535714Y20449943D02*
X76583333Y20354705D01*
X76583333Y20354705D02*
X76583333Y20211848D01*
X76583333Y20211848D02*
X76535714Y20116610D01*
X76535714Y20116610D02*
X76488095Y20068991D01*
X76488095Y20068991D02*
X76392857Y20021372D01*
X76392857Y20021372D02*
X76011905Y20021372D01*
X76964286Y20449943D02*
X77011905Y20497562D01*
X77011905Y20497562D02*
X77107143Y20545181D01*
X77107143Y20545181D02*
X77345238Y20545181D01*
X77345238Y20545181D02*
X77440476Y20497562D01*
X77440476Y20497562D02*
X77488095Y20449943D01*
X77488095Y20449943D02*
X77535714Y20354705D01*
X77535714Y20354705D02*
X77535714Y20259467D01*
X77535714Y20259467D02*
X77488095Y20116610D01*
X77488095Y20116610D02*
X76916667Y19545181D01*
X76916667Y19545181D02*
X77535714Y19545181D01*
X60333333Y34940420D02*
X60285714Y34892800D01*
X60285714Y34892800D02*
X60142857Y34845181D01*
X60142857Y34845181D02*
X60047619Y34845181D01*
X60047619Y34845181D02*
X59904762Y34892800D01*
X59904762Y34892800D02*
X59809524Y34988039D01*
X59809524Y34988039D02*
X59761905Y35083277D01*
X59761905Y35083277D02*
X59714286Y35273753D01*
X59714286Y35273753D02*
X59714286Y35416610D01*
X59714286Y35416610D02*
X59761905Y35607086D01*
X59761905Y35607086D02*
X59809524Y35702324D01*
X59809524Y35702324D02*
X59904762Y35797562D01*
X59904762Y35797562D02*
X60047619Y35845181D01*
X60047619Y35845181D02*
X60142857Y35845181D01*
X60142857Y35845181D02*
X60285714Y35797562D01*
X60285714Y35797562D02*
X60333333Y35749943D01*
X60666667Y35845181D02*
X61333333Y35845181D01*
X61333333Y35845181D02*
X60904762Y34845181D01*
X35023333Y9090420D02*
X34975714Y9042800D01*
X34975714Y9042800D02*
X34832857Y8995181D01*
X34832857Y8995181D02*
X34737619Y8995181D01*
X34737619Y8995181D02*
X34594762Y9042800D01*
X34594762Y9042800D02*
X34499524Y9138039D01*
X34499524Y9138039D02*
X34451905Y9233277D01*
X34451905Y9233277D02*
X34404286Y9423753D01*
X34404286Y9423753D02*
X34404286Y9566610D01*
X34404286Y9566610D02*
X34451905Y9757086D01*
X34451905Y9757086D02*
X34499524Y9852324D01*
X34499524Y9852324D02*
X34594762Y9947562D01*
X34594762Y9947562D02*
X34737619Y9995181D01*
X34737619Y9995181D02*
X34832857Y9995181D01*
X34832857Y9995181D02*
X34975714Y9947562D01*
X34975714Y9947562D02*
X35023333Y9899943D01*
X35356667Y9995181D02*
X35975714Y9995181D01*
X35975714Y9995181D02*
X35642381Y9614229D01*
X35642381Y9614229D02*
X35785238Y9614229D01*
X35785238Y9614229D02*
X35880476Y9566610D01*
X35880476Y9566610D02*
X35928095Y9518991D01*
X35928095Y9518991D02*
X35975714Y9423753D01*
X35975714Y9423753D02*
X35975714Y9185658D01*
X35975714Y9185658D02*
X35928095Y9090420D01*
X35928095Y9090420D02*
X35880476Y9042800D01*
X35880476Y9042800D02*
X35785238Y8995181D01*
X35785238Y8995181D02*
X35499524Y8995181D01*
X35499524Y8995181D02*
X35404286Y9042800D01*
X35404286Y9042800D02*
X35356667Y9090420D01*
X94666667Y10552800D02*
X94809524Y10505181D01*
X94809524Y10505181D02*
X95047619Y10505181D01*
X95047619Y10505181D02*
X95142857Y10552800D01*
X95142857Y10552800D02*
X95190476Y10600420D01*
X95190476Y10600420D02*
X95238095Y10695658D01*
X95238095Y10695658D02*
X95238095Y10790896D01*
X95238095Y10790896D02*
X95190476Y10886134D01*
X95190476Y10886134D02*
X95142857Y10933753D01*
X95142857Y10933753D02*
X95047619Y10981372D01*
X95047619Y10981372D02*
X94857143Y11028991D01*
X94857143Y11028991D02*
X94761905Y11076610D01*
X94761905Y11076610D02*
X94714286Y11124229D01*
X94714286Y11124229D02*
X94666667Y11219467D01*
X94666667Y11219467D02*
X94666667Y11314705D01*
X94666667Y11314705D02*
X94714286Y11409943D01*
X94714286Y11409943D02*
X94761905Y11457562D01*
X94761905Y11457562D02*
X94857143Y11505181D01*
X94857143Y11505181D02*
X95095238Y11505181D01*
X95095238Y11505181D02*
X95238095Y11457562D01*
X95571429Y11505181D02*
X95809524Y10505181D01*
X95809524Y10505181D02*
X96000000Y11219467D01*
X96000000Y11219467D02*
X96190476Y10505181D01*
X96190476Y10505181D02*
X96428572Y11505181D01*
X96761905Y11409943D02*
X96809524Y11457562D01*
X96809524Y11457562D02*
X96904762Y11505181D01*
X96904762Y11505181D02*
X97142857Y11505181D01*
X97142857Y11505181D02*
X97238095Y11457562D01*
X97238095Y11457562D02*
X97285714Y11409943D01*
X97285714Y11409943D02*
X97333333Y11314705D01*
X97333333Y11314705D02*
X97333333Y11219467D01*
X97333333Y11219467D02*
X97285714Y11076610D01*
X97285714Y11076610D02*
X96714286Y10505181D01*
X96714286Y10505181D02*
X97333333Y10505181D01*
X86204819Y5716667D02*
X86919104Y5716667D01*
X86919104Y5716667D02*
X87061961Y5669048D01*
X87061961Y5669048D02*
X87157200Y5573810D01*
X87157200Y5573810D02*
X87204819Y5430953D01*
X87204819Y5430953D02*
X87204819Y5335715D01*
X86204819Y6669048D02*
X86204819Y6192858D01*
X86204819Y6192858D02*
X86681009Y6145239D01*
X86681009Y6145239D02*
X86633390Y6192858D01*
X86633390Y6192858D02*
X86585771Y6288096D01*
X86585771Y6288096D02*
X86585771Y6526191D01*
X86585771Y6526191D02*
X86633390Y6621429D01*
X86633390Y6621429D02*
X86681009Y6669048D01*
X86681009Y6669048D02*
X86776247Y6716667D01*
X86776247Y6716667D02*
X87014342Y6716667D01*
X87014342Y6716667D02*
X87109580Y6669048D01*
X87109580Y6669048D02*
X87157200Y6621429D01*
X87157200Y6621429D02*
X87204819Y6526191D01*
X87204819Y6526191D02*
X87204819Y6288096D01*
X87204819Y6288096D02*
X87157200Y6192858D01*
X87157200Y6192858D02*
X87109580Y6145239D01*
X17333333Y92190420D02*
X17285714Y92142800D01*
X17285714Y92142800D02*
X17142857Y92095181D01*
X17142857Y92095181D02*
X17047619Y92095181D01*
X17047619Y92095181D02*
X16904762Y92142800D01*
X16904762Y92142800D02*
X16809524Y92238039D01*
X16809524Y92238039D02*
X16761905Y92333277D01*
X16761905Y92333277D02*
X16714286Y92523753D01*
X16714286Y92523753D02*
X16714286Y92666610D01*
X16714286Y92666610D02*
X16761905Y92857086D01*
X16761905Y92857086D02*
X16809524Y92952324D01*
X16809524Y92952324D02*
X16904762Y93047562D01*
X16904762Y93047562D02*
X17047619Y93095181D01*
X17047619Y93095181D02*
X17142857Y93095181D01*
X17142857Y93095181D02*
X17285714Y93047562D01*
X17285714Y93047562D02*
X17333333Y92999943D01*
X17904762Y92666610D02*
X17809524Y92714229D01*
X17809524Y92714229D02*
X17761905Y92761848D01*
X17761905Y92761848D02*
X17714286Y92857086D01*
X17714286Y92857086D02*
X17714286Y92904705D01*
X17714286Y92904705D02*
X17761905Y92999943D01*
X17761905Y92999943D02*
X17809524Y93047562D01*
X17809524Y93047562D02*
X17904762Y93095181D01*
X17904762Y93095181D02*
X18095238Y93095181D01*
X18095238Y93095181D02*
X18190476Y93047562D01*
X18190476Y93047562D02*
X18238095Y92999943D01*
X18238095Y92999943D02*
X18285714Y92904705D01*
X18285714Y92904705D02*
X18285714Y92857086D01*
X18285714Y92857086D02*
X18238095Y92761848D01*
X18238095Y92761848D02*
X18190476Y92714229D01*
X18190476Y92714229D02*
X18095238Y92666610D01*
X18095238Y92666610D02*
X17904762Y92666610D01*
X17904762Y92666610D02*
X17809524Y92618991D01*
X17809524Y92618991D02*
X17761905Y92571372D01*
X17761905Y92571372D02*
X17714286Y92476134D01*
X17714286Y92476134D02*
X17714286Y92285658D01*
X17714286Y92285658D02*
X17761905Y92190420D01*
X17761905Y92190420D02*
X17809524Y92142800D01*
X17809524Y92142800D02*
X17904762Y92095181D01*
X17904762Y92095181D02*
X18095238Y92095181D01*
X18095238Y92095181D02*
X18190476Y92142800D01*
X18190476Y92142800D02*
X18238095Y92190420D01*
X18238095Y92190420D02*
X18285714Y92285658D01*
X18285714Y92285658D02*
X18285714Y92476134D01*
X18285714Y92476134D02*
X18238095Y92571372D01*
X18238095Y92571372D02*
X18190476Y92618991D01*
X18190476Y92618991D02*
X18095238Y92666610D01*
X4109580Y33833334D02*
X4157200Y33785715D01*
X4157200Y33785715D02*
X4204819Y33642858D01*
X4204819Y33642858D02*
X4204819Y33547620D01*
X4204819Y33547620D02*
X4157200Y33404763D01*
X4157200Y33404763D02*
X4061961Y33309525D01*
X4061961Y33309525D02*
X3966723Y33261906D01*
X3966723Y33261906D02*
X3776247Y33214287D01*
X3776247Y33214287D02*
X3633390Y33214287D01*
X3633390Y33214287D02*
X3442914Y33261906D01*
X3442914Y33261906D02*
X3347676Y33309525D01*
X3347676Y33309525D02*
X3252438Y33404763D01*
X3252438Y33404763D02*
X3204819Y33547620D01*
X3204819Y33547620D02*
X3204819Y33642858D01*
X3204819Y33642858D02*
X3252438Y33785715D01*
X3252438Y33785715D02*
X3300057Y33833334D01*
X4204819Y34785715D02*
X4204819Y34214287D01*
X4204819Y34500001D02*
X3204819Y34500001D01*
X3204819Y34500001D02*
X3347676Y34404763D01*
X3347676Y34404763D02*
X3442914Y34309525D01*
X3442914Y34309525D02*
X3490533Y34214287D01*
X77333333Y34390420D02*
X77285714Y34342800D01*
X77285714Y34342800D02*
X77142857Y34295181D01*
X77142857Y34295181D02*
X77047619Y34295181D01*
X77047619Y34295181D02*
X76904762Y34342800D01*
X76904762Y34342800D02*
X76809524Y34438039D01*
X76809524Y34438039D02*
X76761905Y34533277D01*
X76761905Y34533277D02*
X76714286Y34723753D01*
X76714286Y34723753D02*
X76714286Y34866610D01*
X76714286Y34866610D02*
X76761905Y35057086D01*
X76761905Y35057086D02*
X76809524Y35152324D01*
X76809524Y35152324D02*
X76904762Y35247562D01*
X76904762Y35247562D02*
X77047619Y35295181D01*
X77047619Y35295181D02*
X77142857Y35295181D01*
X77142857Y35295181D02*
X77285714Y35247562D01*
X77285714Y35247562D02*
X77333333Y35199943D01*
X77809524Y34295181D02*
X78000000Y34295181D01*
X78000000Y34295181D02*
X78095238Y34342800D01*
X78095238Y34342800D02*
X78142857Y34390420D01*
X78142857Y34390420D02*
X78238095Y34533277D01*
X78238095Y34533277D02*
X78285714Y34723753D01*
X78285714Y34723753D02*
X78285714Y35104705D01*
X78285714Y35104705D02*
X78238095Y35199943D01*
X78238095Y35199943D02*
X78190476Y35247562D01*
X78190476Y35247562D02*
X78095238Y35295181D01*
X78095238Y35295181D02*
X77904762Y35295181D01*
X77904762Y35295181D02*
X77809524Y35247562D01*
X77809524Y35247562D02*
X77761905Y35199943D01*
X77761905Y35199943D02*
X77714286Y35104705D01*
X77714286Y35104705D02*
X77714286Y34866610D01*
X77714286Y34866610D02*
X77761905Y34771372D01*
X77761905Y34771372D02*
X77809524Y34723753D01*
X77809524Y34723753D02*
X77904762Y34676134D01*
X77904762Y34676134D02*
X78095238Y34676134D01*
X78095238Y34676134D02*
X78190476Y34723753D01*
X78190476Y34723753D02*
X78238095Y34771372D01*
X78238095Y34771372D02*
X78285714Y34866610D01*
X65261905Y7295181D02*
X65261905Y8295181D01*
X65261905Y8295181D02*
X65500000Y8295181D01*
X65500000Y8295181D02*
X65642857Y8247562D01*
X65642857Y8247562D02*
X65738095Y8152324D01*
X65738095Y8152324D02*
X65785714Y8057086D01*
X65785714Y8057086D02*
X65833333Y7866610D01*
X65833333Y7866610D02*
X65833333Y7723753D01*
X65833333Y7723753D02*
X65785714Y7533277D01*
X65785714Y7533277D02*
X65738095Y7438039D01*
X65738095Y7438039D02*
X65642857Y7342800D01*
X65642857Y7342800D02*
X65500000Y7295181D01*
X65500000Y7295181D02*
X65261905Y7295181D01*
X66214286Y8199943D02*
X66261905Y8247562D01*
X66261905Y8247562D02*
X66357143Y8295181D01*
X66357143Y8295181D02*
X66595238Y8295181D01*
X66595238Y8295181D02*
X66690476Y8247562D01*
X66690476Y8247562D02*
X66738095Y8199943D01*
X66738095Y8199943D02*
X66785714Y8104705D01*
X66785714Y8104705D02*
X66785714Y8009467D01*
X66785714Y8009467D02*
X66738095Y7866610D01*
X66738095Y7866610D02*
X66166667Y7295181D01*
X66166667Y7295181D02*
X66785714Y7295181D01*
X93416666Y89255181D02*
X93416666Y88540896D01*
X93416666Y88540896D02*
X93369047Y88398039D01*
X93369047Y88398039D02*
X93273809Y88302800D01*
X93273809Y88302800D02*
X93130952Y88255181D01*
X93130952Y88255181D02*
X93035714Y88255181D01*
X93845238Y89159943D02*
X93892857Y89207562D01*
X93892857Y89207562D02*
X93988095Y89255181D01*
X93988095Y89255181D02*
X94226190Y89255181D01*
X94226190Y89255181D02*
X94321428Y89207562D01*
X94321428Y89207562D02*
X94369047Y89159943D01*
X94369047Y89159943D02*
X94416666Y89064705D01*
X94416666Y89064705D02*
X94416666Y88969467D01*
X94416666Y88969467D02*
X94369047Y88826610D01*
X94369047Y88826610D02*
X93797619Y88255181D01*
X93797619Y88255181D02*
X94416666Y88255181D01*
X92166667Y29592800D02*
X92309524Y29545181D01*
X92309524Y29545181D02*
X92547619Y29545181D01*
X92547619Y29545181D02*
X92642857Y29592800D01*
X92642857Y29592800D02*
X92690476Y29640420D01*
X92690476Y29640420D02*
X92738095Y29735658D01*
X92738095Y29735658D02*
X92738095Y29830896D01*
X92738095Y29830896D02*
X92690476Y29926134D01*
X92690476Y29926134D02*
X92642857Y29973753D01*
X92642857Y29973753D02*
X92547619Y30021372D01*
X92547619Y30021372D02*
X92357143Y30068991D01*
X92357143Y30068991D02*
X92261905Y30116610D01*
X92261905Y30116610D02*
X92214286Y30164229D01*
X92214286Y30164229D02*
X92166667Y30259467D01*
X92166667Y30259467D02*
X92166667Y30354705D01*
X92166667Y30354705D02*
X92214286Y30449943D01*
X92214286Y30449943D02*
X92261905Y30497562D01*
X92261905Y30497562D02*
X92357143Y30545181D01*
X92357143Y30545181D02*
X92595238Y30545181D01*
X92595238Y30545181D02*
X92738095Y30497562D01*
X93071429Y30545181D02*
X93309524Y29545181D01*
X93309524Y29545181D02*
X93500000Y30259467D01*
X93500000Y30259467D02*
X93690476Y29545181D01*
X93690476Y29545181D02*
X93928572Y30545181D01*
X94833333Y29545181D02*
X94261905Y29545181D01*
X94547619Y29545181D02*
X94547619Y30545181D01*
X94547619Y30545181D02*
X94452381Y30402324D01*
X94452381Y30402324D02*
X94357143Y30307086D01*
X94357143Y30307086D02*
X94261905Y30259467D01*
X55309523Y6045181D02*
X54976190Y6521372D01*
X54738095Y6045181D02*
X54738095Y7045181D01*
X54738095Y7045181D02*
X55119047Y7045181D01*
X55119047Y7045181D02*
X55214285Y6997562D01*
X55214285Y6997562D02*
X55261904Y6949943D01*
X55261904Y6949943D02*
X55309523Y6854705D01*
X55309523Y6854705D02*
X55309523Y6711848D01*
X55309523Y6711848D02*
X55261904Y6616610D01*
X55261904Y6616610D02*
X55214285Y6568991D01*
X55214285Y6568991D02*
X55119047Y6521372D01*
X55119047Y6521372D02*
X54738095Y6521372D01*
X55738095Y6045181D02*
X55738095Y7045181D01*
X55738095Y7045181D02*
X56309523Y6045181D01*
X56309523Y6045181D02*
X56309523Y7045181D01*
X57309523Y6045181D02*
X56738095Y6045181D01*
X57023809Y6045181D02*
X57023809Y7045181D01*
X57023809Y7045181D02*
X56928571Y6902324D01*
X56928571Y6902324D02*
X56833333Y6807086D01*
X56833333Y6807086D02*
X56738095Y6759467D01*
X14374819Y33633334D02*
X13898628Y33300001D01*
X14374819Y33061906D02*
X13374819Y33061906D01*
X13374819Y33061906D02*
X13374819Y33442858D01*
X13374819Y33442858D02*
X13422438Y33538096D01*
X13422438Y33538096D02*
X13470057Y33585715D01*
X13470057Y33585715D02*
X13565295Y33633334D01*
X13565295Y33633334D02*
X13708152Y33633334D01*
X13708152Y33633334D02*
X13803390Y33585715D01*
X13803390Y33585715D02*
X13851009Y33538096D01*
X13851009Y33538096D02*
X13898628Y33442858D01*
X13898628Y33442858D02*
X13898628Y33061906D01*
X14374819Y34585715D02*
X14374819Y34014287D01*
X14374819Y34300001D02*
X13374819Y34300001D01*
X13374819Y34300001D02*
X13517676Y34204763D01*
X13517676Y34204763D02*
X13612914Y34109525D01*
X13612914Y34109525D02*
X13660533Y34014287D01*
X51560476Y83865181D02*
X52227142Y82865181D01*
X52227142Y83865181D02*
X51560476Y82865181D01*
X53131904Y82865181D02*
X52560476Y82865181D01*
X52846190Y82865181D02*
X52846190Y83865181D01*
X52846190Y83865181D02*
X52750952Y83722324D01*
X52750952Y83722324D02*
X52655714Y83627086D01*
X52655714Y83627086D02*
X52560476Y83579467D01*
X9228628Y33273810D02*
X9704819Y33273810D01*
X8704819Y32940477D02*
X9228628Y33273810D01*
X9228628Y33273810D02*
X8704819Y33607143D01*
X9704819Y34464286D02*
X9704819Y33892858D01*
X9704819Y34178572D02*
X8704819Y34178572D01*
X8704819Y34178572D02*
X8847676Y34083334D01*
X8847676Y34083334D02*
X8942914Y33988096D01*
X8942914Y33988096D02*
X8990533Y33892858D01*
X69558333Y34435420D02*
X69510714Y34387800D01*
X69510714Y34387800D02*
X69367857Y34340181D01*
X69367857Y34340181D02*
X69272619Y34340181D01*
X69272619Y34340181D02*
X69129762Y34387800D01*
X69129762Y34387800D02*
X69034524Y34483039D01*
X69034524Y34483039D02*
X68986905Y34578277D01*
X68986905Y34578277D02*
X68939286Y34768753D01*
X68939286Y34768753D02*
X68939286Y34911610D01*
X68939286Y34911610D02*
X68986905Y35102086D01*
X68986905Y35102086D02*
X69034524Y35197324D01*
X69034524Y35197324D02*
X69129762Y35292562D01*
X69129762Y35292562D02*
X69272619Y35340181D01*
X69272619Y35340181D02*
X69367857Y35340181D01*
X69367857Y35340181D02*
X69510714Y35292562D01*
X69510714Y35292562D02*
X69558333Y35244943D01*
X70463095Y35340181D02*
X69986905Y35340181D01*
X69986905Y35340181D02*
X69939286Y34863991D01*
X69939286Y34863991D02*
X69986905Y34911610D01*
X69986905Y34911610D02*
X70082143Y34959229D01*
X70082143Y34959229D02*
X70320238Y34959229D01*
X70320238Y34959229D02*
X70415476Y34911610D01*
X70415476Y34911610D02*
X70463095Y34863991D01*
X70463095Y34863991D02*
X70510714Y34768753D01*
X70510714Y34768753D02*
X70510714Y34530658D01*
X70510714Y34530658D02*
X70463095Y34435420D01*
X70463095Y34435420D02*
X70415476Y34387800D01*
X70415476Y34387800D02*
X70320238Y34340181D01*
X70320238Y34340181D02*
X70082143Y34340181D01*
X70082143Y34340181D02*
X69986905Y34387800D01*
X69986905Y34387800D02*
X69939286Y34435420D01*
X52733095Y74955181D02*
X52733095Y74145658D01*
X52733095Y74145658D02*
X52780714Y74050420D01*
X52780714Y74050420D02*
X52828333Y74002800D01*
X52828333Y74002800D02*
X52923571Y73955181D01*
X52923571Y73955181D02*
X53114047Y73955181D01*
X53114047Y73955181D02*
X53209285Y74002800D01*
X53209285Y74002800D02*
X53256904Y74050420D01*
X53256904Y74050420D02*
X53304523Y74145658D01*
X53304523Y74145658D02*
X53304523Y74955181D01*
X54304523Y73955181D02*
X53733095Y73955181D01*
X54018809Y73955181D02*
X54018809Y74955181D01*
X54018809Y74955181D02*
X53923571Y74812324D01*
X53923571Y74812324D02*
X53828333Y74717086D01*
X53828333Y74717086D02*
X53733095Y74669467D01*
X53488095Y33545181D02*
X53488095Y32735658D01*
X53488095Y32735658D02*
X53535714Y32640420D01*
X53535714Y32640420D02*
X53583333Y32592800D01*
X53583333Y32592800D02*
X53678571Y32545181D01*
X53678571Y32545181D02*
X53869047Y32545181D01*
X53869047Y32545181D02*
X53964285Y32592800D01*
X53964285Y32592800D02*
X54011904Y32640420D01*
X54011904Y32640420D02*
X54059523Y32735658D01*
X54059523Y32735658D02*
X54059523Y33545181D01*
X54440476Y33545181D02*
X55059523Y33545181D01*
X55059523Y33545181D02*
X54726190Y33164229D01*
X54726190Y33164229D02*
X54869047Y33164229D01*
X54869047Y33164229D02*
X54964285Y33116610D01*
X54964285Y33116610D02*
X55011904Y33068991D01*
X55011904Y33068991D02*
X55059523Y32973753D01*
X55059523Y32973753D02*
X55059523Y32735658D01*
X55059523Y32735658D02*
X55011904Y32640420D01*
X55011904Y32640420D02*
X54964285Y32592800D01*
X54964285Y32592800D02*
X54869047Y32545181D01*
X54869047Y32545181D02*
X54583333Y32545181D01*
X54583333Y32545181D02*
X54488095Y32592800D01*
X54488095Y32592800D02*
X54440476Y32640420D01*
X24118095Y48235181D02*
X24118095Y47425658D01*
X24118095Y47425658D02*
X24165714Y47330420D01*
X24165714Y47330420D02*
X24213333Y47282800D01*
X24213333Y47282800D02*
X24308571Y47235181D01*
X24308571Y47235181D02*
X24499047Y47235181D01*
X24499047Y47235181D02*
X24594285Y47282800D01*
X24594285Y47282800D02*
X24641904Y47330420D01*
X24641904Y47330420D02*
X24689523Y47425658D01*
X24689523Y47425658D02*
X24689523Y48235181D01*
X25118095Y48139943D02*
X25165714Y48187562D01*
X25165714Y48187562D02*
X25260952Y48235181D01*
X25260952Y48235181D02*
X25499047Y48235181D01*
X25499047Y48235181D02*
X25594285Y48187562D01*
X25594285Y48187562D02*
X25641904Y48139943D01*
X25641904Y48139943D02*
X25689523Y48044705D01*
X25689523Y48044705D02*
X25689523Y47949467D01*
X25689523Y47949467D02*
X25641904Y47806610D01*
X25641904Y47806610D02*
X25070476Y47235181D01*
X25070476Y47235181D02*
X25689523Y47235181D01*
D13*
X1930000Y88830000D02*
X1930000Y53030000D01*
X1930000Y53030000D02*
X19830000Y53030000D01*
X4420000Y88770000D02*
X4420000Y53090000D01*
X4420000Y53090000D02*
X17340000Y53090000D01*
X9880000Y88770000D02*
X4420000Y88770000D01*
X17340000Y88770000D02*
X11880000Y88770000D01*
X17340000Y53090000D02*
X17340000Y88770000D01*
X19830000Y88830000D02*
X1930000Y88830000D01*
X19830000Y53030000D02*
X19830000Y88830000D01*
X9880000Y88770000D02*
G75*
G03*
X11880000Y88770000I1000000J0D01*
G01*
X67155000Y89375000D02*
X67155000Y38335000D01*
X67155000Y38335000D02*
X85055000Y38335000D01*
X69645000Y89315000D02*
X69645000Y38395000D01*
X69645000Y38395000D02*
X82565000Y38395000D01*
X75105000Y89315000D02*
X69645000Y89315000D01*
X82565000Y89315000D02*
X77105000Y89315000D01*
X82565000Y38395000D02*
X82565000Y89315000D01*
X85055000Y89375000D02*
X67155000Y89375000D01*
X85055000Y38335000D02*
X85055000Y89375000D01*
X75105000Y89315000D02*
G75*
G03*
X77105000Y89315000I1000000J0D01*
G01*
X36121000Y91420000D02*
X37379000Y91420000D01*
X36121000Y89580000D02*
X37379000Y89580000D01*
X72310000Y24000000D02*
X74760000Y24000000D01*
X74760000Y24920000D02*
X74760000Y23080000D01*
X74760000Y23080000D02*
X78040000Y23080000D01*
X75216000Y24920000D02*
X75216000Y23080000D01*
X75336000Y24920000D02*
X75336000Y23080000D01*
X75456000Y24920000D02*
X75456000Y23080000D01*
X78040000Y24920000D02*
X74760000Y24920000D01*
X78040000Y23080000D02*
X78040000Y24920000D01*
X80490000Y24000000D02*
X78040000Y24000000D01*
X84087602Y23315000D02*
X84887602Y23315000D01*
X84487602Y23715000D02*
X84487602Y22915000D01*
X88497300Y25080000D02*
X88497300Y16920000D01*
X88537300Y25080000D02*
X88537300Y16920000D01*
X88577300Y25080000D02*
X88577300Y16920000D01*
X88617300Y25079000D02*
X88617300Y16921000D01*
X88657300Y25077000D02*
X88657300Y16923000D01*
X88697300Y25076000D02*
X88697300Y16924000D01*
X88737300Y25074000D02*
X88737300Y22040000D01*
X88737300Y19960000D02*
X88737300Y16926000D01*
X88777300Y25071000D02*
X88777300Y22040000D01*
X88777300Y19960000D02*
X88777300Y16929000D01*
X88817300Y25068000D02*
X88817300Y22040000D01*
X88817300Y19960000D02*
X88817300Y16932000D01*
X88857300Y25065000D02*
X88857300Y22040000D01*
X88857300Y19960000D02*
X88857300Y16935000D01*
X88897300Y25061000D02*
X88897300Y22040000D01*
X88897300Y19960000D02*
X88897300Y16939000D01*
X88937300Y25057000D02*
X88937300Y22040000D01*
X88937300Y19960000D02*
X88937300Y16943000D01*
X88977300Y25052000D02*
X88977300Y22040000D01*
X88977300Y19960000D02*
X88977300Y16948000D01*
X89017300Y25048000D02*
X89017300Y22040000D01*
X89017300Y19960000D02*
X89017300Y16952000D01*
X89057300Y25042000D02*
X89057300Y22040000D01*
X89057300Y19960000D02*
X89057300Y16958000D01*
X89097300Y25037000D02*
X89097300Y22040000D01*
X89097300Y19960000D02*
X89097300Y16963000D01*
X89137300Y25030000D02*
X89137300Y22040000D01*
X89137300Y19960000D02*
X89137300Y16970000D01*
X89177300Y25024000D02*
X89177300Y22040000D01*
X89177300Y19960000D02*
X89177300Y16976000D01*
X89218300Y25017000D02*
X89218300Y22040000D01*
X89218300Y19960000D02*
X89218300Y16983000D01*
X89258300Y25010000D02*
X89258300Y22040000D01*
X89258300Y19960000D02*
X89258300Y16990000D01*
X89298300Y25002000D02*
X89298300Y22040000D01*
X89298300Y19960000D02*
X89298300Y16998000D01*
X89338300Y24994000D02*
X89338300Y22040000D01*
X89338300Y19960000D02*
X89338300Y17006000D01*
X89378300Y24985000D02*
X89378300Y22040000D01*
X89378300Y19960000D02*
X89378300Y17015000D01*
X89418300Y24976000D02*
X89418300Y22040000D01*
X89418300Y19960000D02*
X89418300Y17024000D01*
X89458300Y24967000D02*
X89458300Y22040000D01*
X89458300Y19960000D02*
X89458300Y17033000D01*
X89498300Y24957000D02*
X89498300Y22040000D01*
X89498300Y19960000D02*
X89498300Y17043000D01*
X89538300Y24947000D02*
X89538300Y22040000D01*
X89538300Y19960000D02*
X89538300Y17053000D01*
X89578300Y24936000D02*
X89578300Y22040000D01*
X89578300Y19960000D02*
X89578300Y17064000D01*
X89618300Y24925000D02*
X89618300Y22040000D01*
X89618300Y19960000D02*
X89618300Y17075000D01*
X89658300Y24914000D02*
X89658300Y22040000D01*
X89658300Y19960000D02*
X89658300Y17086000D01*
X89698300Y24902000D02*
X89698300Y22040000D01*
X89698300Y19960000D02*
X89698300Y17098000D01*
X89738300Y24889000D02*
X89738300Y22040000D01*
X89738300Y19960000D02*
X89738300Y17111000D01*
X89778300Y24877000D02*
X89778300Y22040000D01*
X89778300Y19960000D02*
X89778300Y17123000D01*
X89818300Y24863000D02*
X89818300Y22040000D01*
X89818300Y19960000D02*
X89818300Y17137000D01*
X89858300Y24850000D02*
X89858300Y22040000D01*
X89858300Y19960000D02*
X89858300Y17150000D01*
X89898300Y24835000D02*
X89898300Y22040000D01*
X89898300Y19960000D02*
X89898300Y17165000D01*
X89938300Y24821000D02*
X89938300Y22040000D01*
X89938300Y19960000D02*
X89938300Y17179000D01*
X89978300Y24805000D02*
X89978300Y22040000D01*
X89978300Y19960000D02*
X89978300Y17195000D01*
X90018300Y24790000D02*
X90018300Y22040000D01*
X90018300Y19960000D02*
X90018300Y17210000D01*
X90058300Y24774000D02*
X90058300Y22040000D01*
X90058300Y19960000D02*
X90058300Y17226000D01*
X90098300Y24757000D02*
X90098300Y22040000D01*
X90098300Y19960000D02*
X90098300Y17243000D01*
X90138300Y24740000D02*
X90138300Y22040000D01*
X90138300Y19960000D02*
X90138300Y17260000D01*
X90178300Y24722000D02*
X90178300Y22040000D01*
X90178300Y19960000D02*
X90178300Y17278000D01*
X90218300Y24704000D02*
X90218300Y22040000D01*
X90218300Y19960000D02*
X90218300Y17296000D01*
X90258300Y24686000D02*
X90258300Y22040000D01*
X90258300Y19960000D02*
X90258300Y17314000D01*
X90298300Y24666000D02*
X90298300Y22040000D01*
X90298300Y19960000D02*
X90298300Y17334000D01*
X90338300Y24647000D02*
X90338300Y22040000D01*
X90338300Y19960000D02*
X90338300Y17353000D01*
X90378300Y24627000D02*
X90378300Y22040000D01*
X90378300Y19960000D02*
X90378300Y17373000D01*
X90418300Y24606000D02*
X90418300Y22040000D01*
X90418300Y19960000D02*
X90418300Y17394000D01*
X90458300Y24584000D02*
X90458300Y22040000D01*
X90458300Y19960000D02*
X90458300Y17416000D01*
X90498300Y24562000D02*
X90498300Y22040000D01*
X90498300Y19960000D02*
X90498300Y17438000D01*
X90538300Y24540000D02*
X90538300Y22040000D01*
X90538300Y19960000D02*
X90538300Y17460000D01*
X90578300Y24517000D02*
X90578300Y22040000D01*
X90578300Y19960000D02*
X90578300Y17483000D01*
X90618300Y24493000D02*
X90618300Y22040000D01*
X90618300Y19960000D02*
X90618300Y17507000D01*
X90658300Y24469000D02*
X90658300Y22040000D01*
X90658300Y19960000D02*
X90658300Y17531000D01*
X90698300Y24444000D02*
X90698300Y22040000D01*
X90698300Y19960000D02*
X90698300Y17556000D01*
X90738300Y24418000D02*
X90738300Y22040000D01*
X90738300Y19960000D02*
X90738300Y17582000D01*
X90778300Y24392000D02*
X90778300Y22040000D01*
X90778300Y19960000D02*
X90778300Y17608000D01*
X90818300Y24365000D02*
X90818300Y17635000D01*
X90858300Y24338000D02*
X90858300Y17662000D01*
X90898300Y24309000D02*
X90898300Y17691000D01*
X90938300Y24280000D02*
X90938300Y17720000D01*
X90978300Y24250000D02*
X90978300Y17750000D01*
X91018300Y24220000D02*
X91018300Y17780000D01*
X91058300Y24189000D02*
X91058300Y17811000D01*
X91098300Y24156000D02*
X91098300Y17844000D01*
X91138300Y24124000D02*
X91138300Y17876000D01*
X91178300Y24090000D02*
X91178300Y17910000D01*
X91218300Y24055000D02*
X91218300Y17945000D01*
X91258300Y24019000D02*
X91258300Y17981000D01*
X91298300Y23983000D02*
X91298300Y18017000D01*
X91338300Y23945000D02*
X91338300Y18055000D01*
X91378300Y23907000D02*
X91378300Y18093000D01*
X91418300Y23867000D02*
X91418300Y18133000D01*
X91458300Y23826000D02*
X91458300Y18174000D01*
X91498300Y23784000D02*
X91498300Y18216000D01*
X91538300Y23741000D02*
X91538300Y18259000D01*
X91578300Y23697000D02*
X91578300Y18303000D01*
X91618300Y23651000D02*
X91618300Y18349000D01*
X91658300Y23604000D02*
X91658300Y18396000D01*
X91698300Y23556000D02*
X91698300Y18444000D01*
X91738300Y23505000D02*
X91738300Y18495000D01*
X91778300Y23454000D02*
X91778300Y18546000D01*
X91818300Y23400000D02*
X91818300Y18600000D01*
X91858300Y23345000D02*
X91858300Y18655000D01*
X91898300Y23287000D02*
X91898300Y18713000D01*
X91938300Y23228000D02*
X91938300Y18772000D01*
X91978300Y23166000D02*
X91978300Y18834000D01*
X92018300Y23102000D02*
X92018300Y18898000D01*
X92058300Y23034000D02*
X92058300Y18966000D01*
X92098300Y22964000D02*
X92098300Y19036000D01*
X92138300Y22890000D02*
X92138300Y19110000D01*
X92178300Y22813000D02*
X92178300Y19187000D01*
X92218300Y22731000D02*
X92218300Y19269000D01*
X92258300Y22645000D02*
X92258300Y19355000D01*
X92298300Y22552000D02*
X92298300Y19448000D01*
X92338300Y22453000D02*
X92338300Y19547000D01*
X92378300Y22346000D02*
X92378300Y19654000D01*
X92418300Y22229000D02*
X92418300Y19771000D01*
X92458300Y22098000D02*
X92458300Y19902000D01*
X92498300Y21948000D02*
X92498300Y20052000D01*
X92538300Y21768000D02*
X92538300Y20232000D01*
X92578300Y21533000D02*
X92578300Y20467000D01*
X92617300Y21000000D02*
G75*
G03*
X92617300Y21000000I-4120000J0D01*
G01*
X40670000Y31670000D02*
X40670000Y11110000D01*
X40670000Y11110000D02*
X50950000Y11110000D01*
X43160000Y31610000D02*
X43160000Y11170000D01*
X43160000Y11170000D02*
X48460000Y11170000D01*
X44810000Y31610000D02*
X43160000Y31610000D01*
X48460000Y31610000D02*
X46810000Y31610000D01*
X48460000Y11170000D02*
X48460000Y31610000D01*
X50950000Y31670000D02*
X40670000Y31670000D01*
X50950000Y11110000D02*
X50950000Y31670000D01*
X44810000Y31610000D02*
G75*
G03*
X46810000Y31610000I1000000J0D01*
G01*
X91130000Y58160000D02*
X92460000Y58160000D01*
X91130000Y56830000D02*
X91130000Y58160000D01*
X91130000Y55560000D02*
X91130000Y40260000D01*
X91130000Y55560000D02*
X93730000Y55560000D01*
X91130000Y40260000D02*
X96330000Y40260000D01*
X93730000Y58160000D02*
X96330000Y58160000D01*
X93730000Y55560000D02*
X93730000Y58160000D01*
X96330000Y58160000D02*
X96330000Y40260000D01*
X48121000Y34170000D02*
X49379000Y34170000D01*
X48121000Y32330000D02*
X49379000Y32330000D01*
X21230000Y88850000D02*
X21230000Y53050000D01*
X21230000Y53050000D02*
X39130000Y53050000D01*
X23720000Y88790000D02*
X23720000Y53110000D01*
X23720000Y53110000D02*
X36640000Y53110000D01*
X29180000Y88790000D02*
X23720000Y88790000D01*
X36640000Y88790000D02*
X31180000Y88790000D01*
X36640000Y53110000D02*
X36640000Y88790000D01*
X39130000Y88850000D02*
X21230000Y88850000D01*
X39130000Y53050000D02*
X39130000Y88850000D01*
X29180000Y88790000D02*
G75*
G03*
X31180000Y88790000I1000000J0D01*
G01*
X11770000Y11110000D02*
X10500000Y11110000D01*
X11770000Y12380000D02*
X11770000Y11110000D01*
X9457071Y14540000D02*
X9060000Y14540000D01*
X9457071Y15300000D02*
X9060000Y15300000D01*
X9457071Y17080000D02*
X9060000Y17080000D01*
X9457071Y17840000D02*
X9060000Y17840000D01*
X9457071Y19620000D02*
X9060000Y19620000D01*
X9457071Y20380000D02*
X9060000Y20380000D01*
X9457071Y22160000D02*
X9060000Y22160000D01*
X9457071Y22920000D02*
X9060000Y22920000D01*
X9457071Y24700000D02*
X9060000Y24700000D01*
X9457071Y25460000D02*
X9060000Y25460000D01*
X9390000Y12000000D02*
X9060000Y12000000D01*
X9390000Y12760000D02*
X9060000Y12760000D01*
X9060000Y11050000D02*
X9060000Y26410000D01*
X9060000Y13650000D02*
X6400000Y13650000D01*
X9060000Y16190000D02*
X6400000Y16190000D01*
X9060000Y18730000D02*
X6400000Y18730000D01*
X9060000Y21270000D02*
X6400000Y21270000D01*
X9060000Y23810000D02*
X6400000Y23810000D01*
X9060000Y26410000D02*
X6400000Y26410000D01*
X6400000Y11050000D02*
X9060000Y11050000D01*
X6400000Y12000000D02*
X400000Y12000000D01*
X6400000Y12060000D02*
X400000Y12060000D01*
X6400000Y12180000D02*
X400000Y12180000D01*
X6400000Y12300000D02*
X400000Y12300000D01*
X6400000Y12420000D02*
X400000Y12420000D01*
X6400000Y12540000D02*
X400000Y12540000D01*
X6400000Y12660000D02*
X400000Y12660000D01*
X6400000Y14540000D02*
X400000Y14540000D01*
X6400000Y17080000D02*
X400000Y17080000D01*
X6400000Y19620000D02*
X400000Y19620000D01*
X6400000Y22160000D02*
X400000Y22160000D01*
X6400000Y24700000D02*
X400000Y24700000D01*
X6400000Y26410000D02*
X6400000Y11050000D01*
X400000Y12000000D02*
X400000Y12760000D01*
X400000Y12760000D02*
X6400000Y12760000D01*
X400000Y14540000D02*
X400000Y15300000D01*
X400000Y15300000D02*
X6400000Y15300000D01*
X400000Y17080000D02*
X400000Y17840000D01*
X400000Y17840000D02*
X6400000Y17840000D01*
X400000Y19620000D02*
X400000Y20380000D01*
X400000Y20380000D02*
X6400000Y20380000D01*
X400000Y22160000D02*
X400000Y22920000D01*
X400000Y22920000D02*
X6400000Y22920000D01*
X400000Y24700000D02*
X400000Y25460000D01*
X400000Y25460000D02*
X6400000Y25460000D01*
X72000000Y12790000D02*
X72000000Y12020000D01*
X73370000Y12020000D02*
X70630000Y12020000D01*
X70630000Y12020000D02*
X70630000Y5480000D01*
X73370000Y5480000D02*
X73370000Y12020000D01*
X70630000Y5480000D02*
X73370000Y5480000D01*
X72000000Y4710000D02*
X72000000Y5480000D01*
X43670000Y66379000D02*
X43670000Y65121000D01*
X41830000Y66379000D02*
X41830000Y65121000D01*
X72710000Y20000000D02*
X73480000Y20000000D01*
X73480000Y21370000D02*
X73480000Y18630000D01*
X73480000Y18630000D02*
X80020000Y18630000D01*
X80020000Y21370000D02*
X73480000Y21370000D01*
X80020000Y18630000D02*
X80020000Y21370000D01*
X80790000Y20000000D02*
X80020000Y20000000D01*
X59871000Y34170000D02*
X61129000Y34170000D01*
X59871000Y32330000D02*
X61129000Y32330000D01*
X30871000Y10420000D02*
X32129000Y10420000D01*
X30871000Y8580000D02*
X32129000Y8580000D01*
X97330000Y12630000D02*
X96000000Y12630000D01*
X97330000Y13960000D02*
X97330000Y12630000D01*
X97330000Y15230000D02*
X97330000Y20370000D01*
X97330000Y15230000D02*
X94670000Y15230000D01*
X97330000Y20370000D02*
X94670000Y20370000D01*
X94670000Y15230000D02*
X94670000Y20370000D01*
X76400000Y700000D02*
X76400000Y15400000D01*
X85600000Y700000D02*
X76400000Y700000D01*
X85600000Y9500000D02*
X85600000Y700000D01*
X76200000Y14550000D02*
X76200000Y15600000D01*
X76400000Y15400000D02*
X79000000Y15400000D01*
X82900000Y15400000D02*
X85600000Y15400000D01*
X85600000Y15400000D02*
X85600000Y13500000D01*
X77250000Y15600000D02*
X76200000Y15600000D01*
X16871000Y91420000D02*
X18129000Y91420000D01*
X16871000Y89580000D02*
X18129000Y89580000D01*
X3080000Y37051000D02*
X3080000Y38309000D01*
X4920000Y37051000D02*
X4920000Y38309000D01*
X74695225Y32475000D02*
X75195225Y32475000D01*
X74945225Y32725000D02*
X74945225Y32225000D01*
X77500000Y33580000D02*
X77500000Y28420000D01*
X77540000Y33580000D02*
X77540000Y28420000D01*
X77580000Y33579000D02*
X77580000Y28421000D01*
X77620000Y33578000D02*
X77620000Y28422000D01*
X77660000Y33576000D02*
X77660000Y28424000D01*
X77700000Y33573000D02*
X77700000Y28427000D01*
X77740000Y33569000D02*
X77740000Y32040000D01*
X77740000Y29960000D02*
X77740000Y28431000D01*
X77780000Y33565000D02*
X77780000Y32040000D01*
X77780000Y29960000D02*
X77780000Y28435000D01*
X77820000Y33561000D02*
X77820000Y32040000D01*
X77820000Y29960000D02*
X77820000Y28439000D01*
X77860000Y33556000D02*
X77860000Y32040000D01*
X77860000Y29960000D02*
X77860000Y28444000D01*
X77900000Y33550000D02*
X77900000Y32040000D01*
X77900000Y29960000D02*
X77900000Y28450000D01*
X77940000Y33543000D02*
X77940000Y32040000D01*
X77940000Y29960000D02*
X77940000Y28457000D01*
X77980000Y33536000D02*
X77980000Y32040000D01*
X77980000Y29960000D02*
X77980000Y28464000D01*
X78020000Y33528000D02*
X78020000Y32040000D01*
X78020000Y29960000D02*
X78020000Y28472000D01*
X78060000Y33520000D02*
X78060000Y32040000D01*
X78060000Y29960000D02*
X78060000Y28480000D01*
X78100000Y33511000D02*
X78100000Y32040000D01*
X78100000Y29960000D02*
X78100000Y28489000D01*
X78140000Y33501000D02*
X78140000Y32040000D01*
X78140000Y29960000D02*
X78140000Y28499000D01*
X78180000Y33491000D02*
X78180000Y32040000D01*
X78180000Y29960000D02*
X78180000Y28509000D01*
X78221000Y33480000D02*
X78221000Y32040000D01*
X78221000Y29960000D02*
X78221000Y28520000D01*
X78261000Y33468000D02*
X78261000Y32040000D01*
X78261000Y29960000D02*
X78261000Y28532000D01*
X78301000Y33455000D02*
X78301000Y32040000D01*
X78301000Y29960000D02*
X78301000Y28545000D01*
X78341000Y33442000D02*
X78341000Y32040000D01*
X78341000Y29960000D02*
X78341000Y28558000D01*
X78381000Y33428000D02*
X78381000Y32040000D01*
X78381000Y29960000D02*
X78381000Y28572000D01*
X78421000Y33414000D02*
X78421000Y32040000D01*
X78421000Y29960000D02*
X78421000Y28586000D01*
X78461000Y33398000D02*
X78461000Y32040000D01*
X78461000Y29960000D02*
X78461000Y28602000D01*
X78501000Y33382000D02*
X78501000Y32040000D01*
X78501000Y29960000D02*
X78501000Y28618000D01*
X78541000Y33365000D02*
X78541000Y32040000D01*
X78541000Y29960000D02*
X78541000Y28635000D01*
X78581000Y33348000D02*
X78581000Y32040000D01*
X78581000Y29960000D02*
X78581000Y28652000D01*
X78621000Y33329000D02*
X78621000Y32040000D01*
X78621000Y29960000D02*
X78621000Y28671000D01*
X78661000Y33310000D02*
X78661000Y32040000D01*
X78661000Y29960000D02*
X78661000Y28690000D01*
X78701000Y33290000D02*
X78701000Y32040000D01*
X78701000Y29960000D02*
X78701000Y28710000D01*
X78741000Y33268000D02*
X78741000Y32040000D01*
X78741000Y29960000D02*
X78741000Y28732000D01*
X78781000Y33247000D02*
X78781000Y32040000D01*
X78781000Y29960000D02*
X78781000Y28753000D01*
X78821000Y33224000D02*
X78821000Y32040000D01*
X78821000Y29960000D02*
X78821000Y28776000D01*
X78861000Y33200000D02*
X78861000Y32040000D01*
X78861000Y29960000D02*
X78861000Y28800000D01*
X78901000Y33175000D02*
X78901000Y32040000D01*
X78901000Y29960000D02*
X78901000Y28825000D01*
X78941000Y33149000D02*
X78941000Y32040000D01*
X78941000Y29960000D02*
X78941000Y28851000D01*
X78981000Y33122000D02*
X78981000Y32040000D01*
X78981000Y29960000D02*
X78981000Y28878000D01*
X79021000Y33095000D02*
X79021000Y32040000D01*
X79021000Y29960000D02*
X79021000Y28905000D01*
X79061000Y33065000D02*
X79061000Y32040000D01*
X79061000Y29960000D02*
X79061000Y28935000D01*
X79101000Y33035000D02*
X79101000Y32040000D01*
X79101000Y29960000D02*
X79101000Y28965000D01*
X79141000Y33004000D02*
X79141000Y32040000D01*
X79141000Y29960000D02*
X79141000Y28996000D01*
X79181000Y32971000D02*
X79181000Y32040000D01*
X79181000Y29960000D02*
X79181000Y29029000D01*
X79221000Y32937000D02*
X79221000Y32040000D01*
X79221000Y29960000D02*
X79221000Y29063000D01*
X79261000Y32901000D02*
X79261000Y32040000D01*
X79261000Y29960000D02*
X79261000Y29099000D01*
X79301000Y32864000D02*
X79301000Y32040000D01*
X79301000Y29960000D02*
X79301000Y29136000D01*
X79341000Y32826000D02*
X79341000Y32040000D01*
X79341000Y29960000D02*
X79341000Y29174000D01*
X79381000Y32785000D02*
X79381000Y32040000D01*
X79381000Y29960000D02*
X79381000Y29215000D01*
X79421000Y32743000D02*
X79421000Y32040000D01*
X79421000Y29960000D02*
X79421000Y29257000D01*
X79461000Y32699000D02*
X79461000Y32040000D01*
X79461000Y29960000D02*
X79461000Y29301000D01*
X79501000Y32653000D02*
X79501000Y32040000D01*
X79501000Y29960000D02*
X79501000Y29347000D01*
X79541000Y32605000D02*
X79541000Y32040000D01*
X79541000Y29960000D02*
X79541000Y29395000D01*
X79581000Y32554000D02*
X79581000Y32040000D01*
X79581000Y29960000D02*
X79581000Y29446000D01*
X79621000Y32500000D02*
X79621000Y32040000D01*
X79621000Y29960000D02*
X79621000Y29500000D01*
X79661000Y32443000D02*
X79661000Y32040000D01*
X79661000Y29960000D02*
X79661000Y29557000D01*
X79701000Y32383000D02*
X79701000Y32040000D01*
X79701000Y29960000D02*
X79701000Y29617000D01*
X79741000Y32319000D02*
X79741000Y32040000D01*
X79741000Y29960000D02*
X79741000Y29681000D01*
X79781000Y32251000D02*
X79781000Y32040000D01*
X79781000Y29960000D02*
X79781000Y29749000D01*
X79821000Y32178000D02*
X79821000Y29822000D01*
X79861000Y32098000D02*
X79861000Y29902000D01*
X79901000Y32011000D02*
X79901000Y29989000D01*
X79941000Y31915000D02*
X79941000Y30085000D01*
X79981000Y31805000D02*
X79981000Y30195000D01*
X80021000Y31677000D02*
X80021000Y30323000D01*
X80061000Y31518000D02*
X80061000Y30482000D01*
X80101000Y31284000D02*
X80101000Y30716000D01*
X80120000Y31000000D02*
G75*
G03*
X80120000Y31000000I-2620000J0D01*
G01*
X64435000Y5986000D02*
X64435000Y5830000D01*
X64435000Y3670000D02*
X64435000Y3514000D01*
X67667334Y5828608D02*
G75*
G03*
X64435001Y5985515I-1672334J-1078608D01*
G01*
X67036129Y5829836D02*
G75*
G03*
X64954040Y5829999I-1041129J-1079836D01*
G01*
X64954040Y3670001D02*
G75*
G03*
X67036129Y3670164I1040960J1079999D01*
G01*
X64435001Y3514485D02*
G75*
G03*
X67667334Y3671392I1559999J1235515D01*
G01*
X91130000Y87490000D02*
X92460000Y87490000D01*
X91130000Y86160000D02*
X91130000Y87490000D01*
X91130000Y84890000D02*
X91130000Y69590000D01*
X91130000Y84890000D02*
X93730000Y84890000D01*
X91130000Y69590000D02*
X96330000Y69590000D01*
X93730000Y87490000D02*
X96330000Y87490000D01*
X93730000Y84890000D02*
X93730000Y87490000D01*
X96330000Y87490000D02*
X96330000Y69590000D01*
X90000000Y30750000D02*
X90000000Y29250000D01*
X91250000Y26750000D02*
X95750000Y26750000D01*
X95750000Y33250000D02*
X91250000Y33250000D01*
X97000000Y29250000D02*
X97000000Y30750000D01*
X40540000Y8000000D02*
X40540000Y5200000D01*
X40540000Y5200000D02*
X53580000Y5200000D01*
X43250000Y8000000D02*
X43250000Y5200000D01*
X53580000Y8000000D02*
X40540000Y8000000D01*
X53580000Y5200000D02*
X53580000Y8000000D01*
X14000000Y36680000D02*
X14000000Y35730000D01*
X14920000Y35730000D02*
X13080000Y35730000D01*
X13080000Y35730000D02*
X13080000Y31890000D01*
X14920000Y31890000D02*
X14920000Y35730000D01*
X13080000Y31890000D02*
X14920000Y31890000D01*
X14000000Y30940000D02*
X14000000Y31890000D01*
X45855000Y88090000D02*
X45855000Y75940000D01*
X45855000Y75940000D02*
X58005000Y75940000D01*
X58005000Y88840000D02*
X46605000Y88840000D01*
X58755000Y76690000D02*
X58755000Y88090000D01*
X46605000Y88840000D02*
G75*
G03*
X45855000Y88090000I0J-750000D01*
G01*
X58755000Y88090000D02*
G75*
G03*
X58005000Y88840000I-750000J0D01*
G01*
X58005000Y75940000D02*
G75*
G03*
X58755000Y76690000I0J750000D01*
G01*
X12025000Y37065000D02*
X12025000Y30815000D01*
X6975000Y37065000D02*
X6975000Y30815000D01*
X12025000Y37065000D02*
G75*
G03*
X6975000Y37065000I-2525000J0D01*
G01*
X6975000Y30815000D02*
G75*
G03*
X12025000Y30815000I2525000J0D01*
G01*
X70354000Y35925000D02*
X69096000Y35925000D01*
X70354000Y37765000D02*
X69096000Y37765000D01*
X44545000Y73470000D02*
X44545000Y37670000D01*
X44545000Y37670000D02*
X62445000Y37670000D01*
X47035000Y73410000D02*
X47035000Y37730000D01*
X47035000Y37730000D02*
X59955000Y37730000D01*
X52495000Y73410000D02*
X47035000Y73410000D01*
X59955000Y73410000D02*
X54495000Y73410000D01*
X59955000Y37730000D02*
X59955000Y73410000D01*
X62445000Y73470000D02*
X44545000Y73470000D01*
X62445000Y37670000D02*
X62445000Y73470000D01*
X52495000Y73410000D02*
G75*
G03*
X54495000Y73410000I1000000J0D01*
G01*
X52670000Y31630000D02*
X52670000Y13610000D01*
X52670000Y13610000D02*
X62950000Y13610000D01*
X55160000Y31570000D02*
X55160000Y13670000D01*
X55160000Y13670000D02*
X60460000Y13670000D01*
X56810000Y31570000D02*
X55160000Y31570000D01*
X60460000Y31570000D02*
X58810000Y31570000D01*
X60460000Y13670000D02*
X60460000Y31570000D01*
X62950000Y31630000D02*
X52670000Y31630000D01*
X62950000Y13610000D02*
X62950000Y31630000D01*
X56810000Y31570000D02*
G75*
G03*
X58810000Y31570000I1000000J0D01*
G01*
X15930000Y46750000D02*
X15930000Y10950000D01*
X15930000Y10950000D02*
X33830000Y10950000D01*
X18420000Y46690000D02*
X18420000Y11010000D01*
X18420000Y11010000D02*
X31340000Y11010000D01*
X23880000Y46690000D02*
X18420000Y46690000D01*
X31340000Y46690000D02*
X25880000Y46690000D01*
X31340000Y11010000D02*
X31340000Y46690000D01*
X33830000Y46750000D02*
X15930000Y46750000D01*
X33830000Y10950000D02*
X33830000Y46750000D01*
X23880000Y46690000D02*
G75*
G03*
X25880000Y46690000I1000000J0D01*
G01*
M02*
