M48
; DRILL file {KiCad 7.0.6-0} date 2024 February 24, Saturday 20:21:40
; FORMAT={-:-/ absolute / metric / decimal}
; #@! TF.CreationDate,2024-02-24T20:21:40+09:00
; #@! TF.GenerationSoftware,Kicad,Pcbnew,7.0.6-0
; #@! TF.FileFunction,MixedPlating,1,2
FMAT,2
METRIC
; #@! TA.AperFunction,Plated,PTH,ViaDrill
T1C0.400
; #@! TA.AperFunction,Plated,PTH,ComponentDrill
T2C0.700
; #@! TA.AperFunction,Plated,PTH,ComponentDrill
T3C0.750
; #@! TA.AperFunction,Plated,PTH,ComponentDrill
T4C0.800
; #@! TA.AperFunction,Plated,PTH,ComponentDrill
T5C0.900
; #@! TA.AperFunction,Plated,PTH,ComponentDrill
T6C1.000
; #@! TA.AperFunction,Plated,PTH,ComponentDrill
T7C1.100
; #@! TA.AperFunction,NonPlated,NPTH,ComponentDrill
T8C3.200
%
G90
G05
T1
X27.878Y44.716
X28.608Y60.654
X36.663Y48.466
X37.458Y50.69
X38.184Y49.102
X41.18Y77.7
X41.741Y73.398
X41.961Y76.1
X43.311Y62.976
X44.2Y41.542
X47.329Y40.405
X47.691Y42.848
X48.036Y73.825
X53.427Y47.621
X57.167Y84.349
X63.803Y17.136
X65.498Y80.042
X74.94Y69.528
X75.15Y59.228
X76.527Y54.305
X76.649Y66.59
X77.955Y65.941
X88.992Y48.526
T2
X14.0Y37.62
X14.0Y30.0
T3
X71.32Y24.0
X81.48Y24.0
T4
X3.26Y87.44
X3.26Y84.9
X3.26Y82.36
X3.26Y79.82
X3.26Y77.28
X3.26Y74.74
X3.26Y72.2
X3.26Y69.66
X3.26Y67.12
X3.26Y64.58
X3.26Y62.04
X3.26Y59.5
X3.26Y56.96
X3.26Y54.42
X4.0Y38.93
X4.0Y36.43
X9.5Y36.38
X9.5Y31.5
X16.25Y90.5
X17.26Y45.36
X17.26Y42.82
X17.26Y40.28
X17.26Y37.74
X17.26Y35.2
X17.26Y32.66
X17.26Y30.12
X17.26Y27.58
X17.26Y25.04
X17.26Y22.5
X17.26Y19.96
X17.26Y17.42
X17.26Y14.88
X17.26Y12.34
X18.5Y87.44
X18.5Y84.9
X18.5Y82.36
X18.5Y79.82
X18.5Y77.28
X18.5Y74.74
X18.5Y72.2
X18.5Y69.66
X18.5Y67.12
X18.5Y64.58
X18.5Y62.04
X18.5Y59.5
X18.5Y56.96
X18.5Y54.42
X18.75Y90.5
X22.56Y87.46
X22.56Y84.92
X22.56Y82.38
X22.56Y79.84
X22.56Y77.3
X22.56Y74.76
X22.56Y72.22
X22.56Y69.68
X22.56Y67.14
X22.56Y64.6
X22.56Y62.06
X22.56Y59.52
X22.56Y56.98
X22.56Y54.44
X30.25Y9.5
X32.5Y45.36
X32.5Y42.82
X32.5Y40.28
X32.5Y37.74
X32.5Y35.2
X32.5Y32.66
X32.5Y30.12
X32.5Y27.58
X32.5Y25.04
X32.5Y22.5
X32.5Y19.96
X32.5Y17.42
X32.5Y14.88
X32.5Y12.34
X32.75Y9.5
X35.5Y90.5
X37.8Y87.46
X37.8Y84.92
X37.8Y82.38
X37.8Y79.84
X37.8Y77.3
X37.8Y74.76
X37.8Y72.22
X37.8Y69.68
X37.8Y67.14
X37.8Y64.6
X37.8Y62.06
X37.8Y59.52
X37.8Y56.98
X37.8Y54.44
X38.0Y90.5
X41.98Y6.6
X42.0Y30.28
X42.0Y27.74
X42.0Y25.2
X42.0Y22.66
X42.0Y20.12
X42.0Y17.58
X42.0Y15.04
X42.0Y12.5
X42.75Y67.0
X42.75Y64.5
X44.52Y6.6
X45.875Y72.08
X45.875Y69.54
X45.875Y67.0
X45.875Y64.46
X45.875Y61.92
X45.875Y59.38
X45.875Y56.84
X45.875Y54.3
X45.875Y51.76
X45.875Y49.22
X45.875Y46.68
X45.875Y44.14
X45.875Y41.6
X45.875Y39.06
X47.06Y6.6
X47.5Y33.25
X48.495Y86.2
X48.495Y78.58
X49.6Y6.6
X49.62Y30.28
X49.62Y27.74
X49.62Y25.2
X49.62Y22.66
X49.62Y20.12
X49.62Y17.58
X49.62Y15.04
X49.62Y12.5
X50.0Y33.25
X52.14Y6.6
X54.0Y30.24
X54.0Y27.7
X54.0Y25.16
X54.0Y22.62
X54.0Y20.08
X54.0Y17.54
X54.0Y15.0
X56.115Y86.2
X56.115Y78.58
X59.25Y33.25
X61.115Y72.08
X61.115Y69.54
X61.115Y67.0
X61.115Y64.46
X61.115Y61.92
X61.115Y59.38
X61.115Y56.84
X61.115Y54.3
X61.115Y51.76
X61.115Y49.22
X61.115Y46.68
X61.115Y44.14
X61.115Y41.6
X61.115Y39.06
X61.62Y30.24
X61.62Y27.7
X61.62Y25.16
X61.62Y22.62
X61.62Y20.08
X61.62Y17.54
X61.62Y15.0
X61.75Y33.25
X68.475Y36.845
X68.485Y87.985
X68.485Y85.445
X68.485Y82.905
X68.485Y80.365
X68.485Y77.825
X68.485Y75.285
X68.485Y72.745
X68.485Y70.205
X68.485Y67.665
X68.485Y65.125
X68.485Y62.585
X68.485Y60.045
X68.485Y57.505
X68.485Y54.965
X68.485Y52.425
X68.485Y49.885
X68.485Y47.345
X68.485Y44.805
X68.485Y42.265
X68.485Y39.725
X70.975Y36.845
X71.67Y20.0
X72.0Y13.83
X72.0Y3.67
X76.25Y31.0
X78.75Y31.0
X81.83Y20.0
X83.725Y87.985
X83.725Y85.445
X83.725Y82.905
X83.725Y80.365
X83.725Y77.825
X83.725Y75.285
X83.725Y72.745
X83.725Y70.205
X83.725Y67.665
X83.725Y65.125
X83.725Y62.585
X83.725Y60.045
X83.725Y57.505
X83.725Y54.965
X83.725Y52.425
X83.725Y49.885
X83.725Y47.345
X83.725Y44.805
X83.725Y42.265
X83.725Y39.725
X87.247Y21.0
X89.747Y21.0
T5
X64.725Y4.75
X67.265Y4.75
T6
X10.5Y25.08
X10.5Y22.54
X10.5Y20.0
X10.5Y17.46
X10.5Y14.92
X10.5Y12.38
X92.46Y86.16
X92.46Y83.62
X92.46Y81.08
X92.46Y78.54
X92.46Y76.0
X92.46Y73.46
X92.46Y70.92
X92.46Y56.83
X92.46Y54.29
X92.46Y51.75
X92.46Y49.21
X92.46Y46.67
X92.46Y44.13
X92.46Y41.59
X95.0Y86.16
X95.0Y83.62
X95.0Y81.08
X95.0Y78.54
X95.0Y76.0
X95.0Y73.46
X95.0Y70.92
X95.0Y56.83
X95.0Y54.29
X95.0Y51.75
X95.0Y49.21
X95.0Y46.67
X95.0Y44.13
X95.0Y41.59
X96.0Y19.04
X96.0Y16.5
X96.0Y13.96
T7
X90.25Y32.25
X90.25Y27.75
X96.75Y32.25
X96.75Y27.75
T8
X5.5Y95.5
X5.5Y4.5
X94.5Y95.5
X94.5Y4.5
T6
G00X80.0Y14.5
M15
G01X82.0Y14.5
M16
G05
G00X80.0Y8.5
M15
G01X82.0Y8.5
M16
G05
G00X85.7Y10.5
M15
G01X85.7Y12.5
M16
G05
T0
M30
